<svg xmlns="http://www.w3.org/2000/svg" width="490.207" height="166.054" viewBox="0 0 490.207 166.054">
  <g id="グループ_2377" data-name="グループ 2377" transform="translate(-714.897 -460.473)">
    <g id="グループ_2379" data-name="グループ 2379">
      <path id="パス_4743" data-name="パス 4743" d="M19.673,27.261l6.79,3.279a.781.781,0,0,0,.346.083.733.733,0,0,0,.658-.426.776.776,0,0,0-.325-1.037c-.759-.365-1.223-.756-1.307-1.1-.045-.182-.07-.764.615-2.215l5.529-10.979c.162-.326.358-.689.588-1.092a7.045,7.045,0,0,1,.51-.8c.121-.149.275-.318.467-.514a.885.885,0,0,1,.249-.2,3.751,3.751,0,0,1,.505-.065,1.015,1.015,0,0,1,.452.075q.336.127.784.316a.756.756,0,0,0,.64-1.369L29.39,7.935a.765.765,0,0,0-.58-.05.751.751,0,0,0-.432.4.724.724,0,0,0,.335,1c.737.369,1.186.762,1.264,1.107a4.117,4.117,0,0,1-.6,2.222L24,23.306c-.131.258-.3.583-.5.969-.191.363-.335.618-.436.767l-.432.613a1.487,1.487,0,0,1-.26.32c-.093.063-.215.138-.391.245-.081.051-.121.058-.106.06-.142-.013-.315-.022-.527-.027a1.067,1.067,0,0,1-.363-.086c-.184-.083-.4-.181-.712-.323a.772.772,0,0,0-.934.414.753.753,0,0,0-.041.59.728.728,0,0,0,.384.413" transform="translate(727.54 465.629)" fill="#fff"/>
      <path id="パス_4744" data-name="パス 4744" d="M29.26,30.37a.739.739,0,0,0-.963.5.731.731,0,0,0,.471.964l7.282,2.358a.736.736,0,0,0,.958-.487.751.751,0,0,0-.028-.6.736.736,0,0,0-.441-.368A4.744,4.744,0,0,1,35.072,32a2.864,2.864,0,0,1-.737-.777,1.724,1.724,0,0,1-.194-.8,3.591,3.591,0,0,1,.053-.825c.053-.227.133-.532.247-.906.616-1.982,1.881-5.744,3.852-11.457l.081,17.293a.56.56,0,0,0,.186.416.529.529,0,0,0,.434.142l1.96-.192a.561.561,0,0,0,.381-.207L51.22,22.5l-2.938,8.533-.8,2.3a8.335,8.335,0,0,1-.326.8l-.335.646a1.707,1.707,0,0,1-.219.358l-.365.315c-.073.063-.114.08-.108.081l-.477.023a1.561,1.561,0,0,1-.431-.038c-.184-.038-.4-.1-.643-.177a.727.727,0,0,0-.946.472.781.781,0,0,0,.466.988l7.254,2.344a.867.867,0,0,0,.128.008.766.766,0,0,0,.737-.537.746.746,0,0,0-.035-.6.732.732,0,0,0-.439-.358A4.685,4.685,0,0,1,50.68,37.2a.939.939,0,0,1-.379-.457,1.627,1.627,0,0,1-.061-.787,11.243,11.243,0,0,1,.34-1.478l3.455-10.044c.232-.676.413-1.188.537-1.526s.282-.737.457-1.173c.172-.419.3-.716.4-.888a3.416,3.416,0,0,1,.358-.515.908.908,0,0,1,.244-.237,3.145,3.145,0,0,1,.462-.119,1,1,0,0,1,.436.015l.838.209a.749.749,0,0,0,.964-.5.773.773,0,0,0-.031-.61.755.755,0,0,0-.462-.379l-3.45-1.117c-.674-.224-1.128-.3-1.445-.058-.147.113-.331.254-11.557,14.2l.036-17.934a.563.563,0,0,0-.389-.538L36.611,11.69a.755.755,0,0,0-.956.534.78.78,0,0,0,.464.986,3.988,3.988,0,0,1,.547.205c.446.187.737.411.8.6a2.076,2.076,0,0,1-.065,1.07c-2.25,6.707-3.735,11-4.54,13.113A3.823,3.823,0,0,1,31.4,30.335a2.787,2.787,0,0,1-2.137.035" transform="translate(733.455 468.129)" fill="#fff"/>
      <path id="パス_4745" data-name="パス 4745" d="M47.908,37.866l7.56,1.4a.731.731,0,0,0,.873-.6.749.749,0,0,0-.1-.6.732.732,0,0,0-.489-.308,4.832,4.832,0,0,1-1.554-.54,2.736,2.736,0,0,1-.832-.666,1.743,1.743,0,0,1-.295-.762,3.6,3.6,0,0,1-.051-.817c.023-.234.068-.545.131-.926.355-2.006,1.135-5.892,2.374-11.833l2.285,17.092a.565.565,0,0,0,.686.476l1.927-.447a.56.56,0,0,0,.353-.252l8.289-13.326-1.831,8.815-.507,2.369a7.716,7.716,0,0,1-.229.845l-.24.671a2.455,2.455,0,0,1-.167.376l-.33.363c-.071.078-.111.1-.1.1l-.474.088a1.493,1.493,0,0,1-.432.017c-.191-.015-.409-.048-.656-.093a.723.723,0,0,0-.881.583.77.77,0,0,0,.583.921L71.318,42.2h.02a.771.771,0,0,0,.774-.633.744.744,0,0,0-.106-.578.728.728,0,0,0-.49-.307,4.659,4.659,0,0,1-1.117-.321.946.946,0,0,1-.436-.408,1.565,1.565,0,0,1-.164-.761,11.1,11.1,0,0,1,.152-1.511l2.156-10.37c.146-.7.262-1.226.346-1.584s.184-.761.307-1.216a9.046,9.046,0,0,1,.28-.928,3.628,3.628,0,0,1,.287-.552.991.991,0,0,1,.209-.262,3.608,3.608,0,0,1,.454-.184,1.146,1.146,0,0,1,.442-.041c.234.023.515.055.853.1a.747.747,0,0,0,.888-.616.746.746,0,0,0-.611-.925l-3.584-.661c-.8-.149-1.17-.119-1.438.128-.124.124-.293.293-9.693,15.53L58.593,18.355a.561.561,0,0,0-.456-.482l-5-.93a.759.759,0,0,0-.873.645.782.782,0,0,0,.587.926,3.6,3.6,0,0,1,.567.134c.472.129.79.31.872.492a2.023,2.023,0,0,1,.073,1.062c-1.354,6.765-2.311,11.321-2.845,13.55a3.885,3.885,0,0,1-1.186,2.3,2.826,2.826,0,0,1-2.127.307.729.729,0,0,0-.886.595.73.73,0,0,0,.59.913" transform="translate(745.965 471.596)" fill="#fff"/>
      <path id="パス_4746" data-name="パス 4746" d="M82.156,21.855a.769.769,0,0,0-.6-.565L70.082,20.2a.766.766,0,0,0-.494.174.723.723,0,0,0-.257.479.928.928,0,0,0,.151.543.777.777,0,0,0,.543.285,2.373,2.373,0,0,1,.62.136,1.054,1.054,0,0,1,.409.335.549.549,0,0,1,.114.452L69.262,38.99a.61.61,0,0,1-.224.436,1.215,1.215,0,0,1-.51.258,2.633,2.633,0,0,1-.555.028.773.773,0,0,0-.9.636.943.943,0,0,0,.149.543.787.787,0,0,0,.543.285l12.21,1.158a.572.572,0,0,0,.119.012.775.775,0,0,0,.62-.413l.2-.482c.356-1.065.651-1.915.858-2.472a.742.742,0,0,0-.007-.693.927.927,0,0,0-.408-.326.8.8,0,0,0-.833.209c-.023.025-.086.114-.106.144a2.362,2.362,0,0,1-.341.459,8.364,8.364,0,0,1-.777.7,3.179,3.179,0,0,1-1.239.593,5.146,5.146,0,0,1-1.756.116l-3.9-.369L73.3,32l3.088.293a1.081,1.081,0,0,1,.643.234.885.885,0,0,1,.262.374,1.489,1.489,0,0,1,.023.476.908.908,0,0,0,.141.538.711.711,0,0,0,.452.275.748.748,0,0,0,.9-.626l.436-3.768a.923.923,0,0,0-.114-.542.677.677,0,0,0-.472-.3.731.731,0,0,0-.9.616,1.646,1.646,0,0,1-.131.48.916.916,0,0,1-.358.341,1.1,1.1,0,0,1-.7.116l-3.055-.292.9-7.811,3.054.29a5.065,5.065,0,0,1,1.685.446,3.031,3.031,0,0,1,1.065.8,8.518,8.518,0,0,1,.6.838,3.716,3.716,0,0,1,.288.653.776.776,0,0,0,.638.4h0a.755.755,0,0,0,.6-.239.689.689,0,0,0,.171-.608c-.076-.59-.169-1.453-.288-2.682Z" transform="translate(758.951 473.744)" fill="#fff"/>
      <path id="パス_4747" data-name="パス 4747" d="M80.579,42.433l7.585.187h.018a.768.768,0,0,0,.027-1.534,4.781,4.781,0,0,1-1-.1,1.511,1.511,0,0,1-.548-.24.762.762,0,0,1-.263-.4,5.429,5.429,0,0,1-.184-1,12.543,12.543,0,0,1-.013-1.594l.116-2.547A14.918,14.918,0,0,1,87.982,33.9l.391-.207a1.111,1.111,0,0,1,.989.01A2.77,2.77,0,0,1,90.592,34.9a9.283,9.283,0,0,1,.943,2.141q.37,1.208.712,2.4a10.189,10.189,0,0,0,.862,2.131,2.176,2.176,0,0,0,1.6,1.216l3.589.089h.01a.741.741,0,0,0,.754-.746.756.756,0,0,0-.2-.567.721.721,0,0,0-.52-.224l-1.014-.025c-.089,0-.363-.007-.726-.476a14.217,14.217,0,0,1-1.73-3.713,16.592,16.592,0,0,0-1.833-4.008,2.956,2.956,0,0,0-.689-.709,6.092,6.092,0,0,0,4.3-3.625,6.01,6.01,0,0,0,.393-2.565,5.338,5.338,0,0,0-.577-2.05,4.706,4.706,0,0,0-1.133-1.45,6.065,6.065,0,0,0-1.432-.868,7.074,7.074,0,0,0-1.473-.479A11.925,11.925,0,0,0,91.1,21.2a8.892,8.892,0,0,0-.946-.04,1.131,1.131,0,0,0-.328.033l-8.288-.2a.769.769,0,0,0-.81.757.747.747,0,0,0,.752.807c.32.01.6.025.833.048a1.637,1.637,0,0,1,.49.119,1.509,1.509,0,0,1,.481.287c.073.164.128.3.154.36a2.083,2.083,0,0,1,.051.457c.013.273.015.505.007.689l-.6,13.119a5.969,5.969,0,0,1-.534,2.808c-.214.293-.818.454-1.693.454h-.048a.713.713,0,0,0-.77.734.777.777,0,0,0,.724.8M93.669,26.265a4.89,4.89,0,0,1-.6,3.188,4.1,4.1,0,0,1-2.721,1.693,10.475,10.475,0,0,0-3.933,1.889l.434-9.529a.463.463,0,0,1,.157-.323.62.62,0,0,1,.374-.2.542.542,0,0,0,.161-.046l.1-.013c.152-.031.34-.065.56-.094s.5-.056.81-.078a5.954,5.954,0,0,1,.948.025,9.463,9.463,0,0,1,1.029.162,3.189,3.189,0,0,1,.923.36,3.71,3.71,0,0,1,.82.635,3.127,3.127,0,0,1,.593.939,4.844,4.844,0,0,1,.338,1.392" transform="translate(767.353 474.262)" fill="#fff"/>
      <path id="パス_4748" data-name="パス 4748" d="M102.02,42.988a8.316,8.316,0,0,0,3.044-.709,6.785,6.785,0,0,0,2.31-1.624,7.563,7.563,0,0,0,1.337-2.03,5.086,5.086,0,0,0,.467-2.184,4.886,4.886,0,0,0-.661-2.378,5.21,5.21,0,0,0-1.567-1.683,16.2,16.2,0,0,0-1.967-1.125,17.334,17.334,0,0,0-2.238-.9,19.481,19.481,0,0,1-2.051-.789,15.749,15.749,0,0,1-1.793-.931,3.418,3.418,0,0,1-1.107-1.082,2.6,2.6,0,0,1-.429-1.4,2.387,2.387,0,0,1,.393-1.352,3.387,3.387,0,0,1,1.325-1.15,5.02,5.02,0,0,1,2.126-.547l.257,0a4.717,4.717,0,0,1,3.135,1.122,3.284,3.284,0,0,1,1.413,2.232.792.792,0,0,0,.822.8.806.806,0,0,0,.6-.258.861.861,0,0,0,.214-.562l-.119-4.966a.85.85,0,0,0-.254-.583.743.743,0,0,0-.64-.212.819.819,0,0,0-.538.262.471.471,0,0,0-.124.512,1.545,1.545,0,0,1-.792-.07c-.058-.013-.129-.028-.227-.058l-1.269-.285L103.555,21c-.119-.018-.235-.038-.346-.061a2.777,2.777,0,0,0-.5-.053l-.517-.012c-.126,0-.245,0-.351.007A7.575,7.575,0,0,0,96.8,23.143a7.691,7.691,0,0,0-1.417,2.043,4.958,4.958,0,0,0-.522,2.233A4.544,4.544,0,0,0,95.7,30a5.859,5.859,0,0,0,1.967,1.736,19.546,19.546,0,0,0,2.4,1.112q1.25.477,2.515.956a20.127,20.127,0,0,1,2.22.986,4.364,4.364,0,0,1,1.478,1.229,2.676,2.676,0,0,1,.548,1.6,2.828,2.828,0,0,1-.966,2.03,4.354,4.354,0,0,1-2.984,1.108A8.215,8.215,0,0,1,97.64,38.9a2.15,2.15,0,0,1-.9-1.473.872.872,0,0,0-.3-.582.972.972,0,0,0-.52-.172.809.809,0,0,0-.6.257.867.867,0,0,0-.214.567l.128,4.9a.8.8,0,0,0,.23.635.812.812,0,0,0,.573.23l.048,0a.855.855,0,0,0,.6-.288.573.573,0,0,0,.128-.507s.224-.109,1.016.07a16.535,16.535,0,0,0,4.192.459" transform="translate(777.208 474.041)" fill="#fff"/>
      <path id="パス_4749" data-name="パス 4749" d="M107.676,22.269c1.122-.1,1.546.121,1.687.258a4.021,4.021,0,0,1,.658,2.175l1.041,11.8c.025.285.055.646.084,1.075a8.062,8.062,0,0,1,.028.883c-.007.194-.022.434-.038.717a2.182,2.182,0,0,1-.056.414c-.048.1-.114.235-.2.393,0,.007-.083.123-.086.131-.121.065-.273.146-.442.244a1.158,1.158,0,0,1-.389.126c-.2.033-.427.061-.762.106a.754.754,0,0,0-.582.827.737.737,0,0,0,.26.522.711.711,0,0,0,.467.164.9.9,0,0,0,.094,0l7.58-.815a.76.76,0,0,0,.519-.267.735.735,0,0,0,.159-.547.773.773,0,0,0-.83-.714c-1.137.123-1.566-.1-1.715-.24s-.464-.649-.64-2.167l-1.07-12.113c-.033-.355-.053-.767-.071-1.231a7.357,7.357,0,0,1,.013-.936,6.084,6.084,0,0,1,.128-.673.687.687,0,0,1,.114-.3,3.3,3.3,0,0,1,.391-.313,1.086,1.086,0,0,1,.436-.181c.179-.033.378-.068.6-.1l.249-.043a.731.731,0,0,0,.643-.823.743.743,0,0,0-.265-.519.728.728,0,0,0-.56-.154l-7.57.82a.755.755,0,0,0-.517.252.765.765,0,0,0-.169.568.741.741,0,0,0,.265.522.759.759,0,0,0,.548.157" transform="translate(785.091 473.573)" fill="#fff"/>
      <path id="パス_4750" data-name="パス 4750" d="M116.5,22.6a1.271,1.271,0,0,1,.442.02,1.285,1.285,0,0,1,.429.229,6.629,6.629,0,0,1,.557.459,4.743,4.743,0,0,1,.577.683c.25.343.472.649.666.938s.432.663.722,1.161l.8,1.35c.232.384.537.9.916,1.562s.731,1.248,1.032,1.733q1.521,2.59,5.567,9.373a.564.564,0,0,0,.363.262.615.615,0,0,0,.121.013.574.574,0,0,0,.32-.1l1.874-1.287a.566.566,0,0,0,.24-.408l.79-7.194c.207-1.834.376-3.166.505-3.965.177-1.186.335-2.142.471-2.861s.3-1.445.477-2.184a8.141,8.141,0,0,1,.532-1.619,5.749,5.749,0,0,1,.671-1.064,2.49,2.49,0,0,1,.8-.683A4.809,4.809,0,0,1,136.5,18.6a.737.737,0,0,0,.595-.895.728.728,0,0,0-.88-.611l-7.593,1.514a.734.734,0,0,0-.6.875.75.75,0,0,0,.31.5.8.8,0,0,0,.636.091,2.424,2.424,0,0,1,.527-.094,6.993,6.993,0,0,1,.751-.027,1.187,1.187,0,0,1,.563.176,1.225,1.225,0,0,1,.476.54,1.079,1.079,0,0,1,.142.343,3.63,3.63,0,0,1,.06.673c0,.311,0,.588,0,.843s-.041.606-.1,1.075l-.509,3.642c-.313,1.955-.686,5.039-1.115,9.176l-4.581-7.6c-.152-.249-.381-.606-.688-1.087-2.167-3.315-2.679-4.7-2.726-5.276-.063-.751,1.229-1.183,2.321-1.412a.753.753,0,1,0-.293-1.476l-7.507,1.5a.735.735,0,0,0-.6.886.771.771,0,0,0,.809.631" transform="translate(790.884 471.694)" fill="#fff"/>
      <path id="パス_4751" data-name="パス 4751" d="M131.9,19.041a.722.722,0,0,0,.648.04,2.621,2.621,0,0,1,.611-.147,1.056,1.056,0,0,1,.534.126.529.529,0,0,1,.3.346L139.4,34.842a.578.578,0,0,1-.023.485,1.137,1.137,0,0,1-.331.436,2.7,2.7,0,0,1-.565.288.749.749,0,0,0-.487.956.719.719,0,0,0,.346.409.913.913,0,0,0,.351.086,1.3,1.3,0,0,0,.287-.05l11.681-4.275a.781.781,0,0,0,.423-.661L151.054,32c-.161-1.292-.25-2.081-.3-2.581a.694.694,0,0,0-.262-.582.813.813,0,0,0-.542-.151v0a.789.789,0,0,0-.7.726,2.363,2.363,0,0,1-.111.552,7.633,7.633,0,0,1-.4.963,3.235,3.235,0,0,1-.875,1.065,5.1,5.1,0,0,1-1.549.867L142.6,34.219l-2.577-7.35,2.941-1.07a1.089,1.089,0,0,1,.694-.071.871.871,0,0,1,.4.214,1.65,1.65,0,0,1,.234.419.75.75,0,0,0,.567.489,1.388,1.388,0,0,0,.4-.041.734.734,0,0,0,.457-.933l-1.277-3.647a.757.757,0,0,0-1.4.558,1.477,1.477,0,0,1,.083.471.918.918,0,0,1-.177.449,1.1,1.1,0,0,1-.59.4l-2.921,1.069-2.573-7.348,2.913-1.06a4.18,4.18,0,0,1,3.047-.081,8.93,8.93,0,0,1,.91.484,3.771,3.771,0,0,1,.37.288.772.772,0,0,0,1.125.133l0,0a.84.84,0,0,0,.237-.325.691.691,0,0,0-.108-.648c-.321-.482-.756-1.17-1.433-2.28l-.272-.374a.782.782,0,0,0-.777-.237l-10.839,3.967a.768.768,0,0,0-.441.4.672.672,0,0,0-.03.517.944.944,0,0,0,.345.431" transform="translate(801.286 469.472)" fill="#fff"/>
      <path id="パス_4752" data-name="パス 4752" d="M152.843,10.593c.307-.078.58-.141.822-.186a2.065,2.065,0,0,1,.525-.035,1.253,1.253,0,0,1,.517.123,3.516,3.516,0,0,1,.262.331,1.765,1.765,0,0,1,.179.419c.088.255.149.472.192.638l3.105,12.657a18.43,18.43,0,0,1,.336,1.867,2.3,2.3,0,0,1-.078.969.834.834,0,0,1-.378.487,5.219,5.219,0,0,1-1.241.457.764.764,0,0,0-.457.911.738.738,0,0,0,.34.477.692.692,0,0,0,.365.1.853.853,0,0,0,.214-.028l7.429-1.96a.718.718,0,0,0,.509-.9.758.758,0,0,0-.895-.577,3.1,3.1,0,0,1-1.435.142,1.175,1.175,0,0,1-.679-.593,7.9,7.9,0,0,1-.769-2.175l-.6-2.472A11.361,11.361,0,0,1,162.954,19a9.221,9.221,0,0,1,2.764-1.842,6.215,6.215,0,0,0,2.093-1.491,5.348,5.348,0,0,0,1.18-2,6.465,6.465,0,0,0,.29-2.061,5.651,5.651,0,0,0-.361-1.9,4.637,4.637,0,0,0-1.161-1.813,4.771,4.771,0,0,0-1.6-1.039,6.3,6.3,0,0,0-1.763-.371,10.377,10.377,0,0,0-1.663-.01,11.559,11.559,0,0,0-1.468.235c-.5.109-.843.194-1.009.249a3.329,3.329,0,0,0-.388.147l-7.42,1.952a.755.755,0,0,0-.565.946.8.8,0,0,0,.958.595m13.28,3.074a3.279,3.279,0,0,1-1.548,2.152c-.691.442-1.19.78-1.5,1a14.556,14.556,0,0,0-1.458,1.3,12.142,12.142,0,0,0-1.009,1.112l-2.267-9.265a.482.482,0,0,1,0-.242.676.676,0,0,1,.129-.255.594.594,0,0,1,.267-.177L159,9.165c.138-.075.35-.166.633-.29s.573-.23.835-.318a6.317,6.317,0,0,1,1.42-.265c.1-.008.207-.012.313-.012a6.112,6.112,0,0,1,1.148.118,2.655,2.655,0,0,1,1.3.689,4.375,4.375,0,0,1,1.054,1.594,5.284,5.284,0,0,1,.421,2.986" transform="translate(814.652 464.703)" fill="#fff"/>
      <path id="パス_4753" data-name="パス 4753" d="M168.6,6.215a1.188,1.188,0,0,0,.441-.088,1.163,1.163,0,0,0,.726-.693,30.244,30.244,0,0,1,1.546-3.66A25.117,25.117,0,0,1,173.8,4.758a1.111,1.111,0,0,0,.916.437,1.176,1.176,0,0,0,1.087-.565,1.355,1.355,0,0,0,.154-.92,1.082,1.082,0,0,0-.517-.847c-.487-.29-1.229-.8-2.21-1.526C171.913.369,171.588.146,171.452.069A.576.576,0,0,0,171.126,0,.7.7,0,0,0,171,.025a.558.558,0,0,0-.3.164c-.108.113-.361.439-1.342,1.779-.746,1.022-1.317,1.748-1.718,2.189a1.16,1.16,0,0,0-.209.926,1.354,1.354,0,0,0,.459.885,1.2,1.2,0,0,0,.716.247" transform="translate(824.863 460.473)" fill="#fff"/>
      <path id="パス_4754" data-name="パス 4754" d="M166.092,26.894a.733.733,0,0,0,.134-.01l7.633-1.251a.778.778,0,0,0,.29-1.407.667.667,0,0,0-.573-.068,2.754,2.754,0,0,1-.542.075c-.248.012-.5.01-.754,0a1.167,1.167,0,0,1-.547-.187,1.3,1.3,0,0,1-.479-.588.365.365,0,0,1-.058-.131,3.185,3.185,0,0,1-.051-.338c-.012-.151-.022-.293-.023-.442a3.884,3.884,0,0,1,.028-.474l.048-.593c.012-.156.04-.366.086-.645.048-.3.086-.547.108-.731s.073-.457.136-.812l.075-.421,7.257-1.249c.316.557.575,1.021.777,1.384.237.431.467.88.693,1.352a7.174,7.174,0,0,1,.426,1.034,3.439,3.439,0,0,1,.114.721c.008.209-.033.278-.05.3a1.812,1.812,0,0,1-.421.353,2.437,2.437,0,0,1-.717.307,10.223,10.223,0,0,1-1.2.252.768.768,0,0,0,.237,1.518l7.882-1.3a.741.741,0,0,0,.5-.29.826.826,0,0,0-.162-1.1.74.74,0,0,0-.567-.129,1.472,1.472,0,0,1-.525,0,1.155,1.155,0,0,1-.462-.205,6.194,6.194,0,0,1-.583-.456,4.182,4.182,0,0,1-.578-.693c-.244-.343-.459-.659-.653-.964-.192-.288-.428-.689-.708-1.21-.252-.446-.471-.85-.666-1.21l-.978-1.814c-.368-.683-.686-1.269-.949-1.748q-1.437-2.679-5.224-9.575a.562.562,0,0,0-.355-.273.573.573,0,0,0-.444.071l-1.917,1.224a.564.564,0,0,0-.252.384l-.147.9c-.073.595-.179,1.349-.315,2.253l-.883,5.781c-.149.951-.265,1.687-.353,2.21-.22,1.355-.434,2.482-.631,3.345a24.5,24.5,0,0,1-.669,2.359,5.872,5.872,0,0,1-.78,1.586,3.543,3.543,0,0,1-.976.881,3.935,3.935,0,0,1-1.334.5.74.74,0,0,0-.623.883.729.729,0,0,0,.727.643M177.654,15.5c.1.182.207.369.318.563l-6.069,1,.02-.146c.37-1.953.852-5.025,1.437-9.146Z" transform="translate(823.515 463.008)" fill="#fff"/>
      <path id="パス_4755" data-name="パス 4755" d="M181.8,11.5c0-.409.01-.852.053-1.334a12.927,12.927,0,0,1,.432-2.076,7.489,7.489,0,0,1,1.021-2.3,4.481,4.481,0,0,1,3.953-1.821l.749,13.124a16.634,16.634,0,0,1-.081,4.649c-.179.538-1.079.727-1.808.794a.715.715,0,0,0-.654.794.751.751,0,0,0,.25.547.925.925,0,0,0,.494.164l.031,0,7.6-.583a.74.74,0,0,0,.7-.809.731.731,0,0,0-.784-.694,4.21,4.21,0,0,1-1.176-.08,1.874,1.874,0,0,1-.626-.278s-.151-.119-.273-.749a13.867,13.867,0,0,1-.229-1.509c-.045-.479-.1-1.3-.166-2.47l-.749-13.146c1.866-.249,3.221.139,4.139,1.193a7.155,7.155,0,0,1,1.263,2.121,12.553,12.553,0,0,1,.661,1.987c.093.469.162.9.2,1.284a.88.88,0,0,0,.229.5.681.681,0,0,0,.517.171.87.87,0,0,0,.517-.27.7.7,0,0,0,.119-.572l-1.1-7.7a.563.563,0,0,0-.466-.476l-.389-.065a13.319,13.319,0,0,0-2.144.035c-1.108.066-2.779.224-4.941.466l-.635.051c-2.26.075-3.894.176-4.992.31-1.145.136-1.828.23-2.058.278a1.625,1.625,0,0,0-.573.186.564.564,0,0,0-.25.454l-.219,7.86a.734.734,0,0,0,.237.53.825.825,0,0,0,.517.171.683.683,0,0,0,.64-.726" transform="translate(833.405 461.694)" fill="#fff"/>
      <path id="パス_4756" data-name="パス 4756" d="M202.51,3.134l.862-.068a.729.729,0,0,0,.717-.757.715.715,0,0,0-.746-.747h-.01l-7.6.124a.727.727,0,0,0-.749.756.724.724,0,0,0,.749.749c1.13,0,1.514.258,1.644.413a4.044,4.044,0,0,1,.457,2.23l-.045,11.852c0,.287-.007.646-.015,1.065s-.028.707-.055.886l-.1.714a2.615,2.615,0,0,1-.089.4c-.061.1-.143.234-.247.394a.783.783,0,0,1-.081.108c-.1.04-.222.093-.474.205a1.15,1.15,0,0,1-.391.089c-.2.013-.432.023-.774.035a.769.769,0,0,0-.651.775.727.727,0,0,0,.759.751l7.608-.121a.726.726,0,0,0,.736-.761.764.764,0,0,0-.754-.777c-1.168,0-1.549-.24-1.682-.394s-.4-.636-.439-2.215l.043-12.171c0-.361.017-.77.046-1.234a6.347,6.347,0,0,1,.1-.934,6.578,6.578,0,0,1,.184-.651.891.891,0,0,1,.139-.3h0a3.562,3.562,0,0,1,.429-.283.994.994,0,0,1,.431-.139" transform="translate(842.932 461.499)" fill="#fff"/>
      <path id="パス_4757" data-name="パス 4757" d="M204.838,23.324a.748.748,0,0,0,.669-.239.472.472,0,0,0,.159-.489s.229-.1,1.012.147a16.915,16.915,0,0,0,4.147.789l.308,0a8.045,8.045,0,0,0,2.764-.474,6.814,6.814,0,0,0,2.437-1.437,7.654,7.654,0,0,0,1.493-1.915,5.083,5.083,0,0,0,.635-2.141,4.811,4.811,0,0,0-.469-2.427,5.162,5.162,0,0,0-1.422-1.808,16.131,16.131,0,0,0-1.867-1.279,16.68,16.68,0,0,0-2.156-1.08,18.669,18.669,0,0,1-1.985-.954,15.652,15.652,0,0,1-1.7-1.07,3.343,3.343,0,0,1-1.012-1.16,2.67,2.67,0,0,1-.316-1.44,2.449,2.449,0,0,1,.5-1.324,3.37,3.37,0,0,1,1.412-1.042,4.646,4.646,0,0,1,2.157-.373,4.7,4.7,0,0,1,3.282,1.38,3.333,3.333,0,0,1,1.233,2.33.838.838,0,0,0,.2.611.872.872,0,0,0,.62.267.834.834,0,0,0,.577-.232.853.853,0,0,0,.235-.527l.275-4.954a.83.83,0,0,0-.2-.611.861.861,0,0,0-.61-.263.815.815,0,0,0-.817.726,3.675,3.675,0,0,1-.7-.139,1.686,1.686,0,0,1-.2-.068c-.128-.05-.245-.091-.459-.159l-.524-.157c-.111-.036-.235-.068-.4-.109l-.353-.094a3.5,3.5,0,0,0-.487-.091l-.4-.043c-.152-.015-.308-.027-.469-.033a7.623,7.623,0,0,0-5.2,1.859,7.8,7.8,0,0,0-1.576,1.927,4.96,4.96,0,0,0-.691,2.182,4.521,4.521,0,0,0,.621,2.643,5.9,5.9,0,0,0,1.816,1.889,18.819,18.819,0,0,0,2.3,1.3l2.429,1.161a19.466,19.466,0,0,1,2.131,1.161A4.335,4.335,0,0,1,215.6,16.9a2.687,2.687,0,0,1,.419,1.652,2.814,2.814,0,0,1-1.132,1.952,4.268,4.268,0,0,1-3.06.867,7.269,7.269,0,0,1-2.674-.671,7.734,7.734,0,0,1-2.371-1.6,2.149,2.149,0,0,1-.77-1.559.8.8,0,0,0-.747-.8.653.653,0,0,0-.076,0,.8.8,0,0,0-.814.759l-.278,4.967a.823.823,0,0,0,.191.582.792.792,0,0,0,.548.277" transform="translate(848.965 461.419)" fill="#fff"/>
      <path id="パス_4758" data-name="パス 4758" d="M216.908,23.778a.884.884,0,0,0,.626-.167.543.543,0,0,0,.22-.507s.235-.081,1,.209a16.724,16.724,0,0,0,4.074,1.045c.283.027.562.038.837.038a8.043,8.043,0,0,0,2.268-.318,6.907,6.907,0,0,0,2.512-1.286,7.481,7.481,0,0,0,1.607-1.826,5.064,5.064,0,0,0,.765-2.094,4.881,4.881,0,0,0-.311-2.459,5.278,5.278,0,0,0-1.309-1.892,16.091,16.091,0,0,0-1.779-1.39,16.262,16.262,0,0,0-2.078-1.213,20.067,20.067,0,0,1-1.922-1.074,15.614,15.614,0,0,1-1.63-1.176,3.456,3.456,0,0,1-.939-1.221,2.67,2.67,0,0,1-.227-1.46,2.375,2.375,0,0,1,.58-1.294,3.419,3.419,0,0,1,1.468-.956,5.05,5.05,0,0,1,2.175-.244,4.741,4.741,0,0,1,3.188,1.584,3.322,3.322,0,0,1,1.075,2.475.785.785,0,0,0,.689.848.8.8,0,0,0,.621-.147.829.829,0,0,0,.318-.55l.59-5a.778.778,0,0,0-.674-.845.789.789,0,0,0-.679.177.874.874,0,0,0-.273.489,2.451,2.451,0,0,1-.7-.189,1.385,1.385,0,0,1-.186-.078c-.114-.053-.229-.1-.441-.186L228.186,3c-.116-.048-.227-.088-.413-.154l-.64-.219a2.681,2.681,0,0,0-.481-.119l-.409-.071c-.156-.025-.316-.046-.457-.056a7.588,7.588,0,0,0-5.3,1.538A7.76,7.76,0,0,0,218.8,5.748a4.994,4.994,0,0,0-.825,2.137,4.535,4.535,0,0,0,.454,2.682,5.906,5.906,0,0,0,1.695,1.995A18.5,18.5,0,0,0,222.337,14l2.341,1.306a20.92,20.92,0,0,1,2.058,1.3,4.352,4.352,0,0,1,1.276,1.417,2.692,2.692,0,0,1,.318,1.678,2.823,2.823,0,0,1-1.251,1.879,4.293,4.293,0,0,1-3.1.679,7.266,7.266,0,0,1-2.624-.835,7.633,7.633,0,0,1-2.263-1.741,2.147,2.147,0,0,1-.678-1.556.836.836,0,0,0-.149-.58.732.732,0,0,0-.484-.3.81.81,0,0,0-.993.683L216.2,22.87a.862.862,0,0,0,.179.631.8.8,0,0,0,.527.277" transform="translate(856.912 462.016)" fill="#fff"/>
      <path id="パス_4759" data-name="パス 4759" d="M229.752,24.661l12.118,2.03a.646.646,0,0,0,.124.013.785.785,0,0,0,.6-.373l.23-.462c.4-.959.766-1.814,1.014-2.386a.729.729,0,0,0,.06-.709.951.951,0,0,0-.361-.35.815.815,0,0,0-.979.275,2.282,2.282,0,0,1-.371.429,9.14,9.14,0,0,1-.83.656,3.106,3.106,0,0,1-1.279.5,4.925,4.925,0,0,1-1.75,0l-3.864-.648,1.466-7.736,3.045.507a1.06,1.06,0,0,1,.626.287.876.876,0,0,1,.232.383,1.475,1.475,0,0,1-.017.5.945.945,0,0,0,.114.537.765.765,0,0,0,1.369-.263l.7-3.728a.9.9,0,0,0-.076-.56.785.785,0,0,0-.567-.355.735.735,0,0,0-.828.59,1.5,1.5,0,0,1-.171.472.912.912,0,0,1-.373.3,1.119,1.119,0,0,1-.7.068l-3.027-.51,1.465-7.736,3.02.505a4.861,4.861,0,0,1,1.645.563,2.888,2.888,0,0,1,1,.878,7.418,7.418,0,0,1,.535.868,2.337,2.337,0,0,1,.187.537.782.782,0,0,0,.073.177.754.754,0,0,0,.653.409.764.764,0,0,0,.563-.2.725.725,0,0,0,.2-.62c-.035-.666-.065-1.574-.091-2.669l-.041-.446a.765.765,0,0,0-.56-.621L233.66,3.885a.755.755,0,0,0-.588.111.726.726,0,0,0-.3.479.927.927,0,0,0,.111.552.79.79,0,0,0,.519.323,2.392,2.392,0,0,1,.606.177,1.08,1.08,0,0,1,.379.356.565.565,0,0,1,.085.466L231.4,22.585a.6.6,0,0,1-.267.424,1.161,1.161,0,0,1-.49.219,2.792,2.792,0,0,1-.656-.03l-.017.106h0a.991.991,0,0,0-.1,0l-.012-.119a.758.758,0,0,0-.741.6.735.735,0,0,0,.111.552.764.764,0,0,0,.524.321" transform="translate(865.392 463.013)" fill="#fff"/>
      <path id="パス_4760" data-name="パス 4760" d="M242.043,26.95l7.313,1.846a.731.731,0,0,0,.916-.557.762.762,0,0,0-.071-.6.717.717,0,0,0-.464-.335,5.155,5.155,0,0,1-.938-.315,1.514,1.514,0,0,1-.48-.358.76.76,0,0,1-.169-.457,5.165,5.165,0,0,1,.048-1.026,11.644,11.644,0,0,1,.336-1.564l.674-2.475a14.048,14.048,0,0,1,1.912-.9l.408-.121a1.086,1.086,0,0,1,.954.229,2.8,2.8,0,0,1,.929,1.44,9.828,9.828,0,0,1,.447,2.3c.053.85.108,1.683.157,2.512a10.312,10.312,0,0,0,.363,2.277,2.176,2.176,0,0,0,1.291,1.544l3.455.873a.838.838,0,0,0,.2.025.732.732,0,0,0,.712-.577.76.76,0,0,0-.065-.6.736.736,0,0,0-.464-.338l-.976-.25c-.086-.022-.348-.086-.593-.618a14.463,14.463,0,0,1-.86-4.025,16.678,16.678,0,0,0-.893-4.328,2.921,2.921,0,0,0-.52-.857h.012a5.805,5.805,0,0,0,2.78-.678,5.944,5.944,0,0,0,2.2-1.93,6.149,6.149,0,0,0,.946-2.429,5.459,5.459,0,0,0-.108-2.127,4.727,4.727,0,0,0-.777-1.668,6.3,6.3,0,0,0-1.2-1.168,7.125,7.125,0,0,0-1.321-.79,10.881,10.881,0,0,0-1.258-.459c-.447-.136-.752-.217-.908-.247a1.2,1.2,0,0,0-.325-.036l-8-2.02a.8.8,0,0,0-.886,1.155.779.779,0,0,0,.5.366c.308.075.57.151.787.224a1.624,1.624,0,0,1,.454.232,1.426,1.426,0,0,1,.4.384,3.649,3.649,0,0,1,.071.421,1.946,1.946,0,0,1-.048.423c-.048.273-.1.5-.147.681l-3.474,12.725a6.119,6.119,0,0,1-1.148,2.644c-.277.247-.913.267-1.781.063a.722.722,0,0,0-.91.54.769.769,0,0,0,.528.948m16.264-12.978a4.933,4.933,0,0,1-1.282,3,4.03,4.03,0,0,1-3.015,1.065,10.368,10.368,0,0,0-4.227.986l2.527-9.247a.486.486,0,0,1,.227-.283.626.626,0,0,1,.346-.113c.018,0,.036,0,.056,0a.438.438,0,0,0,.172-.012l.106.01c.149,0,.34.012.555.03s.5.053.8.1a5.6,5.6,0,0,1,.9.227c.325.111.651.245.966.386a3.223,3.223,0,0,1,.814.555,3.758,3.758,0,0,1,.659.809,2.982,2.982,0,0,1,.365,1.045,4.929,4.929,0,0,1,.023,1.44" transform="translate(873.525 464.492)" fill="#fff"/>
      <path id="パス_4761" data-name="パス 4761" d="M255.9,30.528l7.156,2.439a.8.8,0,0,0,.265.046.731.731,0,0,0,.686-.5.777.777,0,0,0-.446-.994c-.8-.275-1.312-.608-1.436-.936-.063-.172-.156-.741.346-2.258l4.179-11.53c.119-.338.275-.724.454-1.148a7.064,7.064,0,0,1,.413-.855c.1-.166.237-.355.4-.563a1.083,1.083,0,0,1,.222-.232,3.716,3.716,0,0,1,.505-.126.977.977,0,0,1,.457.015c.23.058.505.134.819.224a.726.726,0,0,0,.928-.467.741.741,0,0,0-.015-.59.731.731,0,0,0-.442-.378l-7.151-2.439a.755.755,0,0,0-.58.025.807.807,0,0,0-.361,1.016.719.719,0,0,0,.434.381c1.052.379,1.327.757,1.393.943a4.084,4.084,0,0,1-.33,2.273l-4.064,11.224c-.1.273-.229.613-.384,1.017a8.7,8.7,0,0,1-.35.822l-.34.643a1.946,1.946,0,0,1-.225.353l-.358.29c-.074.058-.114.071-.106.073-.144,0-.32.017-.515.035a1.07,1.07,0,0,1-.389-.04c-.2-.058-.414-.129-.739-.23a.77.77,0,0,0-.878.51.744.744,0,0,0,.018.583.735.735,0,0,0,.439.379" transform="translate(882.658 467.163)" fill="#fff"/>
      <path id="パス_4762" data-name="パス 4762" d="M284.285,18.738,273.99,14.011a.748.748,0,0,0-.586-.065.758.758,0,0,0-.451.393.775.775,0,0,0-.02.6.806.806,0,0,0,.408.408,2.364,2.364,0,0,1,.522.32,1.075,1.075,0,0,1,.278.461.549.549,0,0,1-.04.474l-7.171,14.967a.621.621,0,0,1-.37.346,1.061,1.061,0,0,1-.547.081,2.223,2.223,0,0,1-.6-.194.739.739,0,0,0-.991.341.735.735,0,0,0,.378,1.016l11.181,5.135a.854.854,0,0,0,.222.038.791.791,0,0,0,.507-.23l.341-.393c.679-.89,1.238-1.6,1.607-2.061a.743.743,0,0,0,.225-.683,1.022,1.022,0,0,0-.26-.413.829.829,0,0,0-1.016.015,2.5,2.5,0,0,1-.471.326,8.164,8.164,0,0,1-.966.418,3.151,3.151,0,0,1-1.349.159,5.039,5.039,0,0,1-1.682-.459L269.6,33.385l3.423-7.144,2.793,1.282a1.025,1.025,0,0,1,.52.434.882.882,0,0,1,.124.444,1.636,1.636,0,0,1-.149.487.754.754,0,0,0,1.364.641l1.685-3.523a.939.939,0,0,0,0-.553.713.713,0,0,0-.371-.386.734.734,0,0,0-.583-.046.921.921,0,0,0-.422.368,1.7,1.7,0,0,1-.287.419.96.96,0,0,1-.441.2,1.077,1.077,0,0,1-.691-.123L273.8,24.62l3.421-7.144,2.764,1.271a4.874,4.874,0,0,1,1.435.969,3,3,0,0,1,.734,1.105,8.313,8.313,0,0,1,.285,1,2.518,2.518,0,0,1,.045.578c0,.013.013.134.015.147a.743.743,0,0,0,.56.611.86.86,0,0,0,.565-.065.687.687,0,0,0,.348-.509c.123-.588.315-1.417.618-2.658l.076-.466a.781.781,0,0,0-.383-.721" transform="translate(888.542 469.612)" fill="#fff"/>
    </g>
    <g id="グループ_2380" data-name="グループ 2380">
      <path id="パス_4763" data-name="パス 4763" d="M241.953,94.24a56.651,56.651,0,0,0-6.651-4.363,57.875,57.875,0,0,0-7.62-3.614,69.886,69.886,0,0,1-7.267-3.3,57.746,57.746,0,0,1-6.324-3.789,14.167,14.167,0,0,1-4.172-4.556,11.631,11.631,0,0,1-1.576-5.937,10.257,10.257,0,0,1,1.7-5.625,12.843,12.843,0,0,1,5.176-4.4,18.577,18.577,0,0,1,20.54,3.216c3.443,3.291,5.189,6.48,5.193,9.421a1.7,1.7,0,0,0,.374,1.241,1.758,1.758,0,0,0,1.206.517,1.568,1.568,0,0,0,1.206-.517,1.6,1.6,0,0,0,.379-1.158l0-18.249a1.686,1.686,0,0,0-.374-1.243,1.76,1.76,0,0,0-1.206-.517,1.555,1.555,0,0,0-1.2.517,1.592,1.592,0,0,0-.379,1.158c0,.469-.089.775-.262.908-.954.734-3.082-.113-4.026-.4-6.939-2.124-13.545-3.185-20.439-.194a24,24,0,0,0-7.683,5.191,26.418,26.418,0,0,0-4.921,6.961,17.344,17.344,0,0,0-1.871,7.527,16.2,16.2,0,0,0,2.477,8.869,20.5,20.5,0,0,0,6.356,6.3,65.769,65.769,0,0,0,8.18,4.4q4.342,1.973,8.737,3.94a73.347,73.347,0,0,1,7.839,4.061,17.409,17.409,0,0,1,5.449,5.111,11.8,11.8,0,0,1,2.046,6.782c0,2.886-1.329,5.65-3.95,8.218s-6.43,3.879-11.308,3.879a26.067,26.067,0,0,1-9.938-2.215,28.317,28.317,0,0,1-9-5.811c-2.272-2.217-3.425-4.384-3.426-6.381a1.709,1.709,0,0,0-.384-1.241,1.76,1.76,0,0,0-1.2-.51,1.591,1.591,0,0,0-1.206.515,1.634,1.634,0,0,0-.379,1.165l0,18.256a1.71,1.71,0,0,0,.376,1.236,1.764,1.764,0,0,0,1.206.517,1.6,1.6,0,0,0,1.2-.512,1.65,1.65,0,0,0,.384-1.168c0-.7.222-.875.293-.928.156-.119,1.107-.663,4.437.273a56.879,56.879,0,0,0,14.393,2.335,26.5,26.5,0,0,0,10.346-2.035,22.438,22.438,0,0,0,7.878-5.327,25.945,25.945,0,0,0,4.653-6.918,17.911,17.911,0,0,0,1.7-7.388,17.347,17.347,0,0,0-1.949-8.2,18.3,18.3,0,0,0-5.005-6.014" transform="translate(847.422 494.216)" fill="#fff"/>
      <path id="パス_4764" data-name="パス 4764" d="M40.206,94.24a56.647,56.647,0,0,0-6.651-4.363,57.875,57.875,0,0,0-7.62-3.614,69.888,69.888,0,0,1-7.267-3.3,57.75,57.75,0,0,1-6.324-3.789,14.167,14.167,0,0,1-4.172-4.556A11.631,11.631,0,0,1,6.6,68.684a10.257,10.257,0,0,1,1.7-5.625,12.843,12.843,0,0,1,5.176-4.4A17.608,17.608,0,0,1,21.437,56.9a17.657,17.657,0,0,1,12.576,4.974c3.443,3.291,5.189,6.48,5.193,9.421a1.7,1.7,0,0,0,.374,1.241,1.758,1.758,0,0,0,1.206.517,1.568,1.568,0,0,0,1.206-.517,1.6,1.6,0,0,0,.379-1.158l0-18.249a1.686,1.686,0,0,0-.374-1.243,1.761,1.761,0,0,0-1.206-.517,1.555,1.555,0,0,0-1.2.517,1.592,1.592,0,0,0-.379,1.158c0,.469-.089.775-.262.908-.954.734-3.082-.113-4.026-.4-6.939-2.124-13.545-3.185-20.439-.194a24,24,0,0,0-7.683,5.191,26.418,26.418,0,0,0-4.921,6.961A17.344,17.344,0,0,0,0,73.033,16.2,16.2,0,0,0,2.477,81.9a20.5,20.5,0,0,0,6.356,6.3,65.768,65.768,0,0,0,8.18,4.4q4.342,1.973,8.737,3.94a73.345,73.345,0,0,1,7.839,4.061,17.409,17.409,0,0,1,5.449,5.111,11.8,11.8,0,0,1,2.046,6.782c0,2.886-1.329,5.65-3.95,8.218s-6.43,3.879-11.308,3.879a26.067,26.067,0,0,1-9.938-2.215,28.317,28.317,0,0,1-9-5.811c-2.272-2.217-3.425-4.384-3.426-6.381a1.708,1.708,0,0,0-.384-1.241,1.76,1.76,0,0,0-1.2-.51,1.59,1.59,0,0,0-1.206.515,1.634,1.634,0,0,0-.379,1.165l0,18.256A1.709,1.709,0,0,0,.668,129.6a1.764,1.764,0,0,0,1.206.517,1.6,1.6,0,0,0,1.2-.512,1.65,1.65,0,0,0,.384-1.168c0-.7.222-.875.293-.928.156-.119,1.107-.663,4.437.273a56.879,56.879,0,0,0,14.393,2.335,26.5,26.5,0,0,0,10.346-2.035,22.438,22.438,0,0,0,7.878-5.327,25.944,25.944,0,0,0,4.653-6.918,17.911,17.911,0,0,0,1.7-7.388,17.347,17.347,0,0,0-1.948-8.2,18.3,18.3,0,0,0-5.005-6.014" transform="translate(714.897 494.216)" fill="#fff"/>
      <path id="パス_4765" data-name="パス 4765" d="M160.967,126.209h-3.561a4.975,4.975,0,0,1-3.769-2.255c-2.137-2.734-4.474-7.436-6.941-13.976-.782-2.078-1.549-4.318-2.288-6.483-1.624-4.754-3.158-9.244-4.616-11.22a9.02,9.02,0,0,0-6.29-3.764c.159-.045.318-.088.477-.131.828-.224,1.672-.452,2.523-.714a30.651,30.651,0,0,0,9.88-4.878,16.108,16.108,0,0,0,5.532-8.139,14.375,14.375,0,0,0,.621-5.489,16.561,16.561,0,0,0-2.174-6.947,16.2,16.2,0,0,0-3.839-4.785,20.3,20.3,0,0,0-4.863-2.875,23.373,23.373,0,0,0-4.946-1.539,37.129,37.129,0,0,0-4.566-.492c-1.557-.068-32.43.1-33.739.108a1.249,1.249,0,1,0,0,2.5c1.166,0,2.189.036,3.045.108a5.858,5.858,0,0,1,4.889,2.616c.984,1.76.959,4.172.959,6.142v48.49c-.061,5.811-.63,9.6-1.69,11.249-1.011,1.579-3.438,2.414-7.2,2.48a1.149,1.149,0,0,0-1.218,1.261,1.3,1.3,0,0,0,1.218,1.37h26.784a1.32,1.32,0,0,0,0-2.631,18.861,18.861,0,0,1-3.816-.311,5.45,5.45,0,0,1-4.083-3.344c-1.243-3-1.183-6.868-1.183-10.067V98.963a53.289,53.289,0,0,1,6.377-5.557l1.377-.842a5.088,5.088,0,0,1,4.667-.085,11.766,11.766,0,0,1,5.218,4.881c1.054,1.678,2.021,5.216,2.8,8.057.368,1.337.712,2.6,1.029,3.541q1.5,4.456,2.9,8.8a37.3,37.3,0,0,0,3.233,7.474c1.274,2.147,2.8,3.358,4.608,3.6h12.644a1.32,1.32,0,0,0,0-2.631M116.111,59.854a3.281,3.281,0,0,1,.89-2.21,3.858,3.858,0,0,1,1.99-1.2c3.445-.9,10.679-.631,14.287.03a14,14,0,0,1,10.273,9.035c1.393,3.912,1.725,9.928-.92,13.53q-.144.194-.3.383c-2.282,2.775-6,4.575-10.879,6.425a43.433,43.433,0,0,0-15.343,9.163Z" transform="translate(778.679 494.962)" fill="#fff"/>
      <path id="パス_4766" data-name="パス 4766" d="M196.779,63.758a38.635,38.635,0,0,0-16.458-11.27,32.232,32.232,0,0,0-19.054-.747,33.029,33.029,0,0,0-16.362,10.1,39.433,39.433,0,0,0-9.085,18.01A45.66,45.66,0,0,0,136.2,101.1a44.947,44.947,0,0,0,9.694,18.8,38.089,38.089,0,0,0,16.468,11.28,32.157,32.157,0,0,0,10.43,1.605,44.853,44.853,0,0,0,8.578-.855,30.774,30.774,0,0,0,16.587-9.815,40.855,40.855,0,0,0,8.9-18.29,45.34,45.34,0,0,0-.331-21.273,44.539,44.539,0,0,0-9.752-18.794m4.1,46.259a22.417,22.417,0,0,1-8.492,12.007,19.8,19.8,0,0,1-11.128,3.425h0a34.652,34.652,0,0,1-11.353-1.206,33.337,33.337,0,0,1-11.076-5.657,44.607,44.607,0,0,1-9.744-10.182,48.035,48.035,0,0,1-7.075-17.478c-.949-5.453-1.813-12.389-.038-17.647a24.49,24.49,0,0,1,8.581-12.166.3.3,0,0,0,.041-.03c2.46-1.925,5.867-3.016,10.412-3.332a36.4,36.4,0,0,1,11.842,1.412,34.154,34.154,0,0,1,11.078,5.827,44.355,44.355,0,0,1,9.628,10.3,47.37,47.37,0,0,1,7.191,17.331c.618,3.448,1.872,12.051.134,17.4" transform="translate(803.412 493.742)" fill="#fff"/>
      <path id="パス_4767" data-name="パス 4767" d="M291.363,69.828c.08-3.6,0-7.393,1.213-10.826a5.724,5.724,0,0,1,1-1.9c1.625-1.862,4.548-1.977,6.816-1.977A1.263,1.263,0,0,0,300.4,52.6c-6.405-.07-20.479-.07-26.881,0a1.264,1.264,0,0,0-.015,2.525,13.359,13.359,0,0,1,5.469,1.011,5.192,5.192,0,0,1,2.441,3.12,27.81,27.81,0,0,1,1,7.337v23.39H250.862V75.828q0-3.211.046-4.924c.076-2.908.086-5.806.414-8.7a9.806,9.806,0,0,1,1.458-4.5c1.62-2.366,4.537-2.576,7.164-2.576a1.263,1.263,0,0,0,.005-2.525c-6.407-.07-20.479-.07-26.881,0a1.263,1.263,0,0,0-.012,2.525c3.488.066,5.816.807,6.919,2.2,1.137,1.441,1.8,4.565,1.987,9.265v43.825c0,3.723.121,7.625-.915,11.237a6.865,6.865,0,0,1-1.213,2.537,6.437,6.437,0,0,1-4.293,1.886c-.719.068-1.529.1-2.474.1a1.151,1.151,0,0,0-1.221,1.261,1.306,1.306,0,0,0,1.221,1.37l26.967-.007a1.288,1.288,0,0,0,1.127-1.364,1.148,1.148,0,0,0-1.208-1.261c-3.551-.068-5.928-.81-7.067-2.209-1.162-1.435-1.843-4.522-2.026-9.151V92.933h31.557v17.483c0,3.609.1,7.393-.807,10.911a7.529,7.529,0,0,1-1.211,2.734A6.371,6.371,0,0,1,276,126.076c-.719.068-1.529.1-2.474.1a1.15,1.15,0,0,0-1.218,1.261,1.305,1.305,0,0,0,1.218,1.37h13.393l13.575-.007a1.289,1.289,0,0,0,1.13-1.364,1.152,1.152,0,0,0-1.223-1.261,12.173,12.173,0,0,1-5.493-.956,5.538,5.538,0,0,1-2.542-3.185,25.637,25.637,0,0,1-1.046-7.219V75.828q0-3.967.046-6" transform="translate(867.194 494.99)" fill="#fff"/>
      <path id="パス_4768" data-name="パス 4768" d="M89.219,69.828c.08-3.6,0-7.393,1.213-10.826a5.723,5.723,0,0,1,1-1.9c1.625-1.862,4.548-1.977,6.816-1.977a1.263,1.263,0,0,0,.007-2.525c-6.406-.07-20.479-.07-26.881,0a1.264,1.264,0,0,0-.015,2.525,13.359,13.359,0,0,1,5.469,1.011,5.192,5.192,0,0,1,2.441,3.12,27.811,27.811,0,0,1,1,7.337v23.39H48.718V75.828q0-3.211.046-4.924c.076-2.908.086-5.806.414-8.7a9.825,9.825,0,0,1,1.458-4.5c1.62-2.366,4.537-2.576,7.164-2.576a1.263,1.263,0,0,0,0-2.525c-6.407-.07-20.479-.07-26.881,0a1.263,1.263,0,0,0-.012,2.525c3.488.066,5.816.807,6.919,2.2,1.137,1.441,1.8,4.565,1.987,9.265v43.825c0,3.723.121,7.625-.915,11.237a6.864,6.864,0,0,1-1.213,2.537,6.437,6.437,0,0,1-4.293,1.886c-.719.068-1.529.1-2.474.1a1.151,1.151,0,0,0-1.221,1.261,1.306,1.306,0,0,0,1.221,1.37l26.967-.007a1.288,1.288,0,0,0,1.127-1.364,1.148,1.148,0,0,0-1.208-1.261c-3.551-.068-5.928-.81-7.067-2.209-1.161-1.435-1.842-4.522-2.026-9.151V92.933H80.275v17.483c0,3.609.1,7.393-.807,10.911a7.528,7.528,0,0,1-1.211,2.734,6.371,6.371,0,0,1-4.406,2.015c-.719.068-1.529.1-2.474.1a1.15,1.15,0,0,0-1.218,1.261,1.305,1.305,0,0,0,1.218,1.37H84.771l13.575-.007a1.289,1.289,0,0,0,1.13-1.364,1.152,1.152,0,0,0-1.223-1.261,12.174,12.174,0,0,1-5.493-.956,5.538,5.538,0,0,1-2.542-3.185,25.638,25.638,0,0,1-1.045-7.219V75.828q0-3.967.046-6" transform="translate(734.409 494.99)" fill="#fff"/>
      <path id="パス_4769" data-name="パス 4769" d="M306.357,126.166a.843.843,0,0,0-.091-.007c-3.551,0-5.923-.707-7.057-2.1-1.16-1.433-1.813-4.553-1.934-9.259V69.8c0-1.33.048-2.893.141-4.648.132-2.48.238-5.6,1.806-7.655a5.4,5.4,0,0,1,1.11-1.08c1.65-1.208,3.95-1.307,5.933-1.307a1.263,1.263,0,0,0,0-2.525H279.389a1.263,1.263,0,0,0-.012,2.525c3.488.065,5.816.807,6.919,2.2,1.137,1.438,1.8,4.563,1.987,9.264V110.4q0,1.611-.048,4.018a33.744,33.744,0,0,1-.184,3.43,20.517,20.517,0,0,1-.842,4.636,6.056,6.056,0,0,1-5.319,3.629c-.741.033-1.576.051-2.595.058a1.288,1.288,0,0,0-1.128,1.364,1.151,1.151,0,0,0,1.221,1.261h26.876a1.15,1.15,0,0,0,1.218-1.261,1.287,1.287,0,0,0-1.127-1.364" transform="translate(897.621 495.012)" fill="#fff"/>
      <path id="パス_4770" data-name="パス 4770" d="M103.8,126.166a.843.843,0,0,0-.091-.007c-3.551,0-5.923-.707-7.057-2.1-1.16-1.433-1.813-4.553-1.934-9.259V69.8c0-1.33.048-2.893.141-4.648.133-2.48.239-5.6,1.806-7.655a5.4,5.4,0,0,1,1.11-1.08c1.65-1.208,3.95-1.307,5.933-1.307a1.263,1.263,0,0,0,0-2.525H76.83a1.263,1.263,0,0,0-.012,2.525c3.488.065,5.816.807,6.919,2.2,1.137,1.438,1.8,4.563,1.987,9.264V110.4q0,1.611-.048,4.018a33.746,33.746,0,0,1-.184,3.43,20.526,20.526,0,0,1-.842,4.636,6.056,6.056,0,0,1-5.319,3.629c-.741.033-1.576.051-2.595.058a1.288,1.288,0,0,0-1.128,1.364,1.151,1.151,0,0,0,1.221,1.261h26.876a1.15,1.15,0,0,0,1.218-1.261,1.287,1.287,0,0,0-1.127-1.364" transform="translate(764.563 495.012)" fill="#fff"/>
      <path id="パス_4771" data-name="パス 4771" d="M208.235,126.166a.845.845,0,0,0-.091-.007c-3.551,0-5.923-.707-7.057-2.1-1.16-1.433-1.813-4.553-1.934-9.259V69.8c0-1.33.048-2.893.141-4.648.133-2.48.239-5.6,1.806-7.655a5.4,5.4,0,0,1,1.11-1.08c1.65-1.208,3.95-1.307,5.933-1.307a1.263,1.263,0,0,0,0-2.525H181.267a1.263,1.263,0,0,0-.012,2.525c3.488.065,5.816.807,6.919,2.2,1.137,1.438,1.8,4.563,1.987,9.264V110.4q0,1.611-.048,4.018a33.739,33.739,0,0,1-.184,3.43,20.53,20.53,0,0,1-.842,4.636,6.056,6.056,0,0,1-5.319,3.629c-.741.033-1.576.051-2.595.058a1.288,1.288,0,0,0-1.128,1.364,1.151,1.151,0,0,0,1.221,1.261h26.876a1.15,1.15,0,0,0,1.218-1.261,1.287,1.287,0,0,0-1.127-1.364" transform="translate(833.167 495.012)" fill="#fff"/>
    </g>
  </g>
</svg>