<svg xmlns="http://www.w3.org/2000/svg" width="838.839" height="140.553" viewBox="0 0 838.839 140.553">
  <g id="グループ_2587" data-name="グループ 2587" transform="translate(-7333.16 11373.995)">
    <g id="グループ_2588" data-name="グループ 2588" transform="translate(7333.16 -11373.995)">
      <path id="パス_27" data-name="パス 27" d="M270.547,124.73a96.936,96.936,0,0,0-11.381-7.465,99.023,99.023,0,0,0-13.039-6.184,119.591,119.591,0,0,1-12.435-5.642,98.8,98.8,0,0,1-10.822-6.484,24.241,24.241,0,0,1-7.139-7.8A19.9,19.9,0,0,1,213.034,81a17.551,17.551,0,0,1,2.909-9.626A21.977,21.977,0,0,1,224.8,63.84a31.789,31.789,0,0,1,35.149,5.5c5.892,5.631,8.88,11.089,8.886,16.121a2.907,2.907,0,0,0,.641,2.124,3.008,3.008,0,0,0,2.064.885,2.683,2.683,0,0,0,2.064-.885,2.729,2.729,0,0,0,.649-1.982l-.009-31.227a2.885,2.885,0,0,0-.641-2.126,3.013,3.013,0,0,0-2.064-.885,2.66,2.66,0,0,0-2.061.885,2.725,2.725,0,0,0-.649,1.982c0,.8-.153,1.327-.448,1.554-1.633,1.256-5.274-.193-6.89-.689-11.874-3.635-23.178-5.449-34.976-.332a41.073,41.073,0,0,0-13.147,8.883,45.206,45.206,0,0,0-8.421,11.911,29.68,29.68,0,0,0-3.2,12.88,27.719,27.719,0,0,0,4.239,15.177,35.088,35.088,0,0,0,10.876,10.78,112.543,112.543,0,0,0,14,7.522q7.43,3.377,14.95,6.742a125.523,125.523,0,0,1,13.414,6.949,29.788,29.788,0,0,1,9.325,8.747,20.184,20.184,0,0,1,3.5,11.6c0,4.939-2.274,9.668-6.759,14.063s-11,6.637-19.351,6.637a44.606,44.606,0,0,1-17.006-3.791,48.455,48.455,0,0,1-15.4-9.943c-3.887-3.794-5.86-7.5-5.863-10.919a2.924,2.924,0,0,0-.658-2.124,3.011,3.011,0,0,0-2.056-.873,2.722,2.722,0,0,0-2.064.882,2.8,2.8,0,0,0-.649,1.993l.006,31.239a2.926,2.926,0,0,0,.644,2.115,3.018,3.018,0,0,0,2.064.885,2.733,2.733,0,0,0,2.058-.876,2.824,2.824,0,0,0,.658-2c0-1.2.38-1.5.5-1.588.266-.2,1.894-1.134,7.593.468,9.731,2.651,18.018,3.995,24.63,3.995a45.346,45.346,0,0,0,17.7-3.482,38.4,38.4,0,0,0,13.482-9.115,44.4,44.4,0,0,0,7.961-11.837,30.65,30.65,0,0,0,2.906-12.642,29.684,29.684,0,0,0-3.334-14.029,31.307,31.307,0,0,0-8.565-10.292" transform="translate(370.255 -49.325)" fill="#fff"/>
      <path id="パス_28" data-name="パス 28" d="M68.8,124.73a96.938,96.938,0,0,0-11.381-7.465,99.03,99.03,0,0,0-13.039-6.184,119.59,119.59,0,0,1-12.435-5.642,98.81,98.81,0,0,1-10.822-6.484,24.242,24.242,0,0,1-7.139-7.8A19.9,19.9,0,0,1,11.287,81,17.551,17.551,0,0,1,14.2,71.373a21.977,21.977,0,0,1,8.857-7.533,30.13,30.13,0,0,1,13.629-3.008A30.215,30.215,0,0,1,58.2,69.343c5.892,5.631,8.88,11.089,8.886,16.121a2.907,2.907,0,0,0,.641,2.124,3.008,3.008,0,0,0,2.064.885,2.684,2.684,0,0,0,2.064-.885,2.729,2.729,0,0,0,.649-1.982L72.5,54.379a2.886,2.886,0,0,0-.641-2.126,3.013,3.013,0,0,0-2.064-.885,2.661,2.661,0,0,0-2.061.885,2.725,2.725,0,0,0-.649,1.982c0,.8-.153,1.327-.448,1.554C65,57.044,61.36,55.6,59.744,55.1c-11.874-3.635-23.178-5.449-34.976-.332A41.075,41.075,0,0,0,11.622,63.65,45.207,45.207,0,0,0,3.2,75.561,29.679,29.679,0,0,0,0,88.442a27.719,27.719,0,0,0,4.239,15.177A35.088,35.088,0,0,0,15.115,114.4a112.544,112.544,0,0,0,14,7.522q7.43,3.377,14.95,6.742a125.514,125.514,0,0,1,13.414,6.949,29.789,29.789,0,0,1,9.325,8.747,20.184,20.184,0,0,1,3.5,11.6c0,4.939-2.274,9.668-6.759,14.063s-11,6.637-19.351,6.637a44.606,44.606,0,0,1-17.006-3.791,48.455,48.455,0,0,1-15.4-9.943c-3.887-3.794-5.86-7.5-5.863-10.919a2.924,2.924,0,0,0-.658-2.124,3.011,3.011,0,0,0-2.056-.873,2.721,2.721,0,0,0-2.064.882,2.8,2.8,0,0,0-.649,1.993L.5,183.127a2.925,2.925,0,0,0,.644,2.115,3.018,3.018,0,0,0,2.064.885,2.734,2.734,0,0,0,2.058-.876,2.824,2.824,0,0,0,.658-2c0-1.2.38-1.5.5-1.588.267-.2,1.894-1.134,7.593.468,9.731,2.651,18.018,3.995,24.63,3.995a45.346,45.346,0,0,0,17.7-3.482,38.4,38.4,0,0,0,13.482-9.115,44.4,44.4,0,0,0,7.961-11.837A30.65,30.65,0,0,0,80.7,149.051a29.684,29.684,0,0,0-3.334-14.029A31.308,31.308,0,0,0,68.8,124.73" transform="translate(0 -49.325)" fill="#fff"/>
      <path id="パス_29" data-name="パス 29" d="M206.39,178.626H200.3c-2.246,0-4.417-1.3-6.45-3.859-3.657-4.678-7.655-12.725-11.877-23.915-1.338-3.555-2.651-7.389-3.915-11.094-2.779-8.134-5.4-15.818-7.9-19.2a15.436,15.436,0,0,0-10.763-6.442c.272-.077.544-.15.817-.224,1.418-.383,2.861-.774,4.318-1.222a52.45,52.45,0,0,0,16.907-8.347A27.564,27.564,0,0,0,190.9,90.4,24.6,24.6,0,0,0,191.964,81a28.341,28.341,0,0,0-3.72-11.888,27.726,27.726,0,0,0-6.569-8.188,34.737,34.737,0,0,0-8.321-4.919,40,40,0,0,0-8.463-2.634,63.532,63.532,0,0,0-7.814-.842c-2.665-.116-55.494.173-57.734.184a2.138,2.138,0,1,0,0,4.27c2,0,3.745.062,5.211.184,3.278.264,6.671,1.449,8.367,4.477,1.684,3.011,1.642,7.139,1.642,10.51v82.976c-.1,9.943-1.077,16.419-2.892,19.248-1.73,2.7-5.883,4.131-12.328,4.244a1.967,1.967,0,0,0-2.084,2.158,2.232,2.232,0,0,0,2.084,2.345h45.832a2.258,2.258,0,0,0,0-4.5,32.275,32.275,0,0,1-6.53-.533,9.325,9.325,0,0,1-6.986-5.722c-2.126-5.14-2.024-11.752-2.024-17.227V132a91.189,91.189,0,0,1,10.913-9.509l2.356-1.44a8.707,8.707,0,0,1,7.987-.145c3.32,1.384,6.325,4.193,8.928,8.353,1.8,2.872,3.459,8.925,4.792,13.788.629,2.288,1.219,4.451,1.761,6.059q2.564,7.625,4.967,15.064a63.831,63.831,0,0,0,5.532,12.79c2.18,3.674,4.789,5.747,7.885,6.167H206.39a2.258,2.258,0,0,0,0-4.5M129.634,65.081a5.614,5.614,0,0,1,1.523-3.782,6.6,6.6,0,0,1,3.405-2.056c5.894-1.537,18.273-1.08,24.448.051,8.18,1.5,14.916,7.973,17.578,15.461,2.384,6.694,2.951,16.989-1.574,23.153q-.247.332-.51.655c-3.9,4.749-10.266,7.828-18.616,11-8.171,3.1-17.593,7.38-26.254,15.679Z" transform="translate(178.197 -47.242)" fill="#fff"/>
      <path id="パス_30" data-name="パス 30" d="M240.894,73.081A66.112,66.112,0,0,0,212.731,53.8a55.155,55.155,0,0,0-32.605-1.279,56.52,56.52,0,0,0-28,17.275,67.477,67.477,0,0,0-15.546,30.819,78.132,78.132,0,0,0,.658,36.368,76.913,76.913,0,0,0,16.589,32.172,65.177,65.177,0,0,0,28.179,19.3,55.026,55.026,0,0,0,17.848,2.747,76.755,76.755,0,0,0,14.678-1.463c10.414-2.061,20.76-8.183,28.384-16.8,7.236-8.174,12.359-18.7,15.231-31.3a77.586,77.586,0,0,0-.567-36.4,76.216,76.216,0,0,0-16.688-32.16m7.02,79.157c-2.946,9.064-7.564,15.591-14.531,20.547-6.731,4.783-13.714,5.645-19.041,5.86h0a59.3,59.3,0,0,1-19.427-2.064,57.046,57.046,0,0,1-18.954-9.68,76.329,76.329,0,0,1-16.674-17.423c-6.3-9.9-10.377-19.96-12.106-29.909-1.625-9.331-3.1-21.2-.065-30.2A41.907,41.907,0,0,1,161.8,68.553a.507.507,0,0,0,.071-.051c4.21-3.295,10.04-5.16,17.817-5.7a62.289,62.289,0,0,1,20.263,2.416A58.445,58.445,0,0,1,218.9,75.188a75.9,75.9,0,0,1,16.476,17.618c6.413,9.881,10.553,19.858,12.3,29.657,1.058,5.9,3.2,20.621.23,29.776" transform="translate(247.299 -50.648)" fill="#fff"/>
      <path id="パス_31" data-name="パス 31" d="M333.69,82.118c.136-6.161.006-12.651,2.075-18.526a9.793,9.793,0,0,1,1.718-3.252c2.781-3.187,7.783-3.382,11.664-3.382a2.162,2.162,0,0,0,.011-4.321c-10.961-.119-35.044-.119-46,0a2.162,2.162,0,0,0-.026,4.321c4.21.116,7.36.7,9.359,1.729a8.884,8.884,0,0,1,4.176,5.339c.927,2.713,1.5,6.949,1.715,12.554v40.025h-54V92.384q0-5.495.079-8.426c.13-4.976.148-9.935.709-14.891a16.778,16.778,0,0,1,2.5-7.7c2.773-4.049,7.763-4.409,12.26-4.409a2.162,2.162,0,0,0,.009-4.321c-10.964-.119-35.044-.119-46,0a2.162,2.162,0,0,0-.02,4.321c5.968.113,9.952,1.381,11.84,3.768,1.945,2.467,3.088,7.811,3.4,15.855v74.992c0,6.371.207,13.048-1.565,19.229a11.747,11.747,0,0,1-2.075,4.341c-1.718,2.067-4.749,2.977-7.346,3.226-1.231.116-2.617.179-4.233.179a1.969,1.969,0,0,0-2.089,2.158,2.234,2.234,0,0,0,2.089,2.345l46.146-.011a2.2,2.2,0,0,0,1.928-2.333,1.964,1.964,0,0,0-2.067-2.158c-6.076-.116-10.145-1.386-12.092-3.779-1.988-2.455-3.153-7.737-3.468-15.659V121.655h54v29.917c0,6.175.17,12.651-1.381,18.67a12.884,12.884,0,0,1-2.073,4.678c-1.687,2.2-4.863,3.192-7.539,3.448-1.231.116-2.617.179-4.233.179a1.968,1.968,0,0,0-2.084,2.158,2.234,2.234,0,0,0,2.084,2.345h22.917l23.229-.011a2.206,2.206,0,0,0,1.934-2.333,1.972,1.972,0,0,0-2.093-2.158c-4.2,0-7.366-.55-9.4-1.636a9.476,9.476,0,0,1-4.349-5.449c-.981-2.716-1.582-6.884-1.789-12.353V92.384q0-6.788.079-10.266" transform="translate(425.497 -47.164)" fill="#fff"/>
      <path id="パス_32" data-name="パス 32" d="M131.546,82.118c.136-6.161.006-12.651,2.075-18.526a9.793,9.793,0,0,1,1.718-3.252c2.781-3.187,7.783-3.382,11.664-3.382a2.162,2.162,0,0,0,.011-4.321c-10.961-.119-35.044-.119-46,0a2.162,2.162,0,0,0-.025,4.321c4.21.116,7.36.7,9.359,1.729a8.884,8.884,0,0,1,4.176,5.339c.927,2.713,1.5,6.949,1.715,12.554v40.025h-54V92.384q0-5.495.079-8.426c.13-4.976.147-9.935.709-14.891a16.812,16.812,0,0,1,2.5-7.7c2.773-4.049,7.763-4.409,12.26-4.409a2.162,2.162,0,0,0,.009-4.321c-10.964-.119-35.044-.119-46,0a2.162,2.162,0,0,0-.02,4.321c5.968.113,9.952,1.381,11.84,3.768,1.945,2.467,3.088,7.811,3.4,15.855v74.992c0,6.371.207,13.048-1.565,19.229a11.746,11.746,0,0,1-2.075,4.341c-1.718,2.067-4.749,2.977-7.346,3.226-1.23.116-2.617.179-4.233.179A1.97,1.97,0,0,0,29.7,180.7a2.234,2.234,0,0,0,2.09,2.345l46.146-.011a2.2,2.2,0,0,0,1.928-2.333,1.964,1.964,0,0,0-2.067-2.158c-6.076-.116-10.144-1.386-12.092-3.779-1.987-2.455-3.153-7.737-3.467-15.659V121.655h54v29.917c0,6.175.17,12.651-1.381,18.67a12.881,12.881,0,0,1-2.073,4.678c-1.687,2.2-4.862,3.192-7.539,3.448-1.23.116-2.617.179-4.233.179a1.968,1.968,0,0,0-2.084,2.158,2.234,2.234,0,0,0,2.084,2.345h22.917l23.229-.011A2.206,2.206,0,0,0,149.1,180.7,1.972,1.972,0,0,0,147,178.547c-4.2,0-7.366-.55-9.4-1.636a9.477,9.477,0,0,1-4.349-5.449c-.981-2.716-1.582-6.884-1.789-12.353V92.384q0-6.788.079-10.266" transform="translate(54.514 -47.164)" fill="#fff"/>
      <path id="パス_33" data-name="パス 33" d="M326.4,178.5a1.432,1.432,0,0,0-.156-.011c-6.076,0-10.136-1.211-12.075-3.592-1.985-2.453-3.1-7.791-3.309-15.843V82.038c0-2.277.082-4.95.241-7.953.227-4.244.408-9.586,3.09-13.1a9.24,9.24,0,0,1,1.9-1.849c2.824-2.067,6.759-2.237,10.153-2.237a2.162,2.162,0,0,0,0-4.321H280.258a2.162,2.162,0,0,0-.02,4.321c5.968.111,9.952,1.381,11.84,3.768,1.945,2.461,3.087,7.808,3.4,15.852v74.992q0,2.756-.082,6.876a57.728,57.728,0,0,1-.315,5.869c-.352,2.611-.485,5.461-1.44,7.933a10.363,10.363,0,0,1-9.1,6.209c-1.267.057-2.7.088-4.44.1a2.2,2.2,0,0,0-1.931,2.333,1.97,1.97,0,0,0,2.089,2.158h45.991a1.968,1.968,0,0,0,2.084-2.158A2.2,2.2,0,0,0,326.4,178.5" transform="translate(510.507 -47.1)" fill="#fff"/>
      <path id="パス_34" data-name="パス 34" d="M123.845,178.5a1.432,1.432,0,0,0-.156-.011c-6.076,0-10.136-1.211-12.075-3.592-1.985-2.453-3.1-7.791-3.309-15.843V82.038c0-2.277.082-4.95.241-7.953.227-4.244.408-9.586,3.09-13.1a9.245,9.245,0,0,1,1.9-1.849c2.824-2.067,6.759-2.237,10.153-2.237a2.162,2.162,0,0,0,0-4.321H77.7a2.162,2.162,0,0,0-.02,4.321c5.968.111,9.952,1.381,11.84,3.768,1.945,2.461,3.088,7.808,3.4,15.852v74.992q0,2.756-.082,6.876a57.738,57.738,0,0,1-.315,5.869c-.352,2.611-.485,5.461-1.44,7.933a10.364,10.364,0,0,1-9.1,6.209c-1.267.057-2.7.088-4.44.1a2.2,2.2,0,0,0-1.931,2.333,1.97,1.97,0,0,0,2.09,2.158h45.991a1.968,1.968,0,0,0,2.084-2.158,2.2,2.2,0,0,0-1.928-2.333" transform="translate(138.76 -47.1)" fill="#fff"/>
    </g>
    <path id="パス_5063" data-name="パス 5063" d="M228.282,178.5a1.433,1.433,0,0,0-.156-.011c-6.076,0-10.136-1.211-12.075-3.592-1.985-2.453-3.1-7.791-3.309-15.843V82.038c0-2.277.082-4.95.241-7.953.227-4.244.408-9.586,3.09-13.1a9.246,9.246,0,0,1,1.9-1.849c2.824-2.067,6.759-2.237,10.153-2.237a2.162,2.162,0,0,0,0-4.321H182.135a2.162,2.162,0,0,0-.02,4.321c5.968.111,9.952,1.381,11.84,3.768,1.945,2.461,3.088,7.808,3.4,15.852v74.992q0,2.756-.082,6.876a57.728,57.728,0,0,1-.315,5.869c-.352,2.611-.485,5.461-1.44,7.933a10.364,10.364,0,0,1-9.1,6.209c-1.267.057-2.7.088-4.44.1a2.2,2.2,0,0,0-1.931,2.333,1.97,1.97,0,0,0,2.09,2.158h45.991a1.968,1.968,0,0,0,2.084-2.158,2.2,2.2,0,0,0-1.928-2.333" transform="translate(7663.587 -11421.096)" fill="#fff"/>
  </g>
</svg>
