<svg xmlns="http://www.w3.org/2000/svg" xmlns:xlink="http://www.w3.org/1999/xlink" width="534.808" height="141.47" viewBox="0 0 534.808 141.47">
  <defs>
    <clipPath id="clip-path">
      <rect id="長方形_5" data-name="長方形 5" width="534.808" height="141.469" fill="none"/>
    </clipPath>
  </defs>
  <g id="グループ_33" data-name="グループ 33" transform="translate(0 0)">
    <g id="グループ_5" data-name="グループ 5" transform="translate(0 0)" clip-path="url(#clip-path)">
      <path id="パス_36" data-name="パス 36" d="M155.938,88.754a2.3,2.3,0,0,0-2.469,1.17c-4.653,6.364-10.584,13.152-22.128,13.152-4.068,0-8.274-.824-8.615-6.936-.287-5.077,1.258-27.717,2.54-34.693a78.17,78.17,0,0,0,1.38-9.017,10.2,10.2,0,0,0-.894-5.46c-1.628-3.2-5.149-4.647-10.189-4.178-2.251.214-4.3,1.613-4.3,2.931,0,1.359,1.44,2.111,3.111,2.984a13.444,13.444,0,0,1,3.792,2.414c1.265,1.407,1.054,3.747,1.129,5.527.069,1.575.041,3.157.01,4.732-.081,4.166-.276,8.331-.525,12.49-.139,2.351-.261,4.714-.537,7.052a104.605,104.605,0,0,0-1.069,15.007c.386,11.984,8.193,13.368,14.032,13.368l.637,0a26.625,26.625,0,0,0,24.928-17.857c.4-1.254.062-2.358-.83-2.684" transform="translate(79.649 30.573)" fill="#002c83"/>
      <path id="パス_37" data-name="パス 37" d="M44.678,88.754a2.3,2.3,0,0,0-2.469,1.17c-4.653,6.364-10.584,13.152-22.128,13.152-4.068,0-8.274-.824-8.615-6.936-.287-5.077,1.258-27.717,2.54-34.693a78.173,78.173,0,0,0,1.38-9.017,10.2,10.2,0,0,0-.894-5.46c-1.628-3.2-5.149-4.647-10.189-4.178C2.05,43.006,0,44.4,0,45.723c0,1.359,1.44,2.111,3.111,2.984A13.445,13.445,0,0,1,6.9,51.121c1.265,1.407,1.054,3.747,1.129,5.527.069,1.575.041,3.157.01,4.732-.081,4.166-.276,8.331-.525,12.49-.139,2.351-.261,4.714-.537,7.052A104.609,104.609,0,0,0,5.911,95.93C6.3,107.913,14.1,109.3,19.944,109.3l.637,0A26.625,26.625,0,0,0,45.509,91.437c.4-1.254.062-2.358-.83-2.684" transform="translate(0 30.573)" fill="#002c83"/>
      <path id="パス_38" data-name="パス 38" d="M65.147,77.789A47.061,47.061,0,0,0,51.693,79.5c.738-1.263,1.76-3.114,2.962-5.283,4.135-7.471,10.383-18.758,13.3-21.251l.5-.431c1.277-1.072,2.594-2.184,2.514-3.909-.077-2.73-4.762-5.395-7.437-5.395a13.4,13.4,0,0,0-4.472.921l-2.231.716c-.971.317-1.982.643-2.924.94a24.709,24.709,0,0,1-6.5.563l-.812-.009c-1.831,0-3.506-1.1-5.125-2.159l-.6-.4a2.1,2.1,0,0,0-1.915-.311c-.395.165-1.059.661-1.059,2.114,0,3.953,4.338,8.631,8,8.631a8.851,8.851,0,0,0,2.98-.637c.719-.227,1.446-.535,2.059-.8,1.936-.837,4.159-1.881,5.946-2.718,2.171-1.018,4.223-1.977,4.818-2.145a.924.924,0,0,1,.784.043c.125.11.115.407-.027.741-1.568,3.669-11.67,21.013-15.941,28.3l-.185.316a36.6,36.6,0,0,1-3.675,5.419A39.542,39.542,0,0,1,37.8,87.563a19.414,19.414,0,0,0-2.313,2.207c-1.822,2.193-1.963,4.466-.359,5.937a2.606,2.606,0,0,0,1.712.652,5.677,5.677,0,0,0,3.593-1.889c.6-.578,1.179-1.2,1.867-1.937a12.439,12.439,0,0,0,1.278-1.7A14.88,14.88,0,0,1,46.4,87.515c4.2-3.723,11.865-5.671,17.272-5.671,6.536,0,10.438,3.26,10.438,8.724,0,7.033-9.261,12.37-23.593,13.595-2.05.182-2.908,1.189-2.852,2.105.045.806.848,1.745,2.967,1.745,20.011,0,30.155-5.642,30.155-16.769,0-7.8-6.577-13.454-15.64-13.454" transform="translate(24.35 30.951)" fill="#002c83"/>
      <path id="パス_39" data-name="パス 39" d="M96.01,50.728h0a5.925,5.925,0,0,0-1.374-.18,2.006,2.006,0,0,0-1.911.868c-.42.724-.259,1.978,1.579,3.13,4.835,3.029,7.418,7.236,8.126,13.245.367,3.128,1.05,4.947,3.47,4.988a3.744,3.744,0,0,0,2.488-.868,5.658,5.658,0,0,0,1.815-4.334c.1-5.541-4.237-14.431-14.19-16.848" transform="translate(66.241 36.187)" fill="#002c83"/>
      <path id="パス_40" data-name="パス 40" d="M94.839,85.212a2.266,2.266,0,0,0-2.485,1.335c-.187.316-.444.764-.794,1.368-.679,1.175-1.709,2.953-2.136,3.588C88.759,92.5,88.078,93,87.4,93c-1.937,0-4.943-3.65-5.561-7.752-.566-3.732-.664-19.7.621-24.312a14.506,14.506,0,0,0,.422-6.853c-1.242-4.568-4.252-6.915-10.383-8.1a5.1,5.1,0,0,0-1.956-.06,1.814,1.814,0,0,0-1.282.794c-.2.336-.705,1.565,1.412,3.216,4.18,3.246,4.6,4.629,5.208,7.72.395,1.992-.015,5.345-.053,7.38-.033,1.8-.036,3.9-.046,5.7-.021,4.188-.009,6.937.153,11.124a38.464,38.464,0,0,0,.347,4.681c1.27,7.809,8.176,15.017,14.492,15.124h.239a3.824,3.824,0,0,0,2.95-.945c.716-.755.846-1.884.4-3.445a8.046,8.046,0,0,1-.005-3.711,32.358,32.358,0,0,1,.969-3.5l.1-.331c.233-.755.448-1.453.553-1.9.336-1.479-.329-2.376-1.138-2.61" transform="translate(49.438 32.823)" fill="#002c83"/>
      <path id="パス_41" data-name="パス 41" d="M331.963,46.85a1.667,1.667,0,0,0-.45.014c-.048-.005-.1-.022-.148-.022-.679,0-1.841.63-4.808,5.517H310.344V47.312c1.886-.486,3.669-1.139,3.669-2.924,0-2.5-8.361-2.531-8.444-2.531a1.221,1.221,0,0,0-1.016.439,1.347,1.347,0,0,0-.235.949c.19,2.133.278,5.771.218,9.113H288.743a17.529,17.529,0,0,0-5.9-3.065,1.424,1.424,0,0,0-1.273.316,1.684,1.684,0,0,0-.28,1.349c.4,6.805.628,14.324.628,21.16-.141,15.664-2.491,24.858-8.676,33.92-.81,1.155-.59,2.088-.153,2.539a1.359,1.359,0,0,0,.973.384,2.272,2.272,0,0,0,1.546-.717c9.863-8.875,11.556-22.267,11.915-34.2.19-5.975.35-11.86.213-18.166h46.334c.093,0,.173-.009.263-.01h.7c2.9,0,4.563-.8,4.563-2.2,0-2.308-5.872-6.821-7.627-6.821" transform="translate(195.218 29.965)" fill="#002c83"/>
      <path id="パス_42" data-name="パス 42" d="M320.881,57.014h0A1.654,1.654,0,0,0,320.67,57a.92.92,0,0,0-.11-.019c-.391,0-.928.194-1.809,1.146l-.022.024c-.058.063-.118.132-.18.2a14.648,14.648,0,0,0-.942,1.2c-.542.746-1.175,1.707-1.92,2.938l-.031.007h-11.97V56.153c1.954-.5,3.662-1.132,3.662-3,0-2.426-8.214-2.454-8.3-2.454a1.281,1.281,0,0,0-1.031.439,1.2,1.2,0,0,0-.221.892c.556,4.755.683,18.168.561,26.179h-6.876a15.935,15.935,0,0,0-6.141-2.754,1.2,1.2,0,0,0-1.028.357,1.088,1.088,0,0,0-.278.873c.534,5.343.41,14.873.329,21.181l0,.173c-.026,1.893-.046,3.523-.046,4.691a2.038,2.038,0,0,0,2.219,2.3c1.575,0,3.452-.451,3.452-2.6V99.055H314.4v2.912c0,1.75.954,2.836,2.488,2.836,2.442,0,3.394-.882,3.394-3.144,0-.487-.007-1.2-.014-2.064l-.021-2.049c-.048-4.49-.112-10.623.029-14.523,1.158-.511,2.423-1.249,2.423-2.44,0-1.745-4.333-5.364-5.946-5.364-.492,0-1.3.343-3.209,2.991h-9.863V66.023H313.1a.606.606,0,0,0,.081.014h10.757c2.9,0,4.563-.8,4.563-2.2,0-2.306-5.87-6.819-7.62-6.819M289.986,95.527v-4.52c0-4.513.026-7.756.069-9.171.065-.012.135-.022.228-.038s.182-.033.316-.062h23.938c0,1.3-.014,3.161-.033,5.237l-.01,1.975c-.012,2.2-.024,4.511-.024,6.579Z" transform="translate(203.33 36.295)" fill="#002c83"/>
      <path id="パス_43" data-name="パス 43" d="M193.462,52.585h18.466c0,.935-.024,1.785-.043,2.581l0,.223c-.014.638-.021,1.191-.021,1.646a2.056,2.056,0,0,0,2.21,2.22c2.193,0,3.258-.8,3.258-2.452V52.585h10.784c0,.879-.024,1.659-.041,2.347l-.007.269c-.012.609-.021,1.138-.021,1.6a2.08,2.08,0,0,0,2.212,2.219c.824,0,3.325,0,3.325-2.452V52.585h16.184c.043,0,.074-.005.115-.005h.532c2.9,0,4.561-.8,4.561-2.2,0-1.469-1.836-3.385-2.931-4.4-.472-.436-2.9-2.612-4.388-2.615-2.049,0-4.286,3.075-5.822,5.7h-8.252v-2.8c2.222-.367,2.7-1.385,2.7-2.186,0-1.932-4.681-2.222-7.473-2.222a1.164,1.164,0,0,0-.957.369,1.294,1.294,0,0,0-.225.951c.067.77.3,3.4.468,5.885H217.33V46.185c2.28-.4,2.627-1.531,2.627-2.183,0-1.937-5.125-2.147-7.33-2.147a1.221,1.221,0,0,0-.964.374,1.256,1.256,0,0,0-.225.947c.118,1.333.338,3.792.45,5.884H193.462a1.6,1.6,0,0,0-1.8,1.766c0,1.2.571,1.759,1.8,1.759" transform="translate(137.209 29.964)" fill="#002c83"/>
      <path id="パス_44" data-name="パス 44" d="M253.342,78.809c-.472-.438-2.9-2.613-4.386-2.617a3.449,3.449,0,0,0-2.056.882c-.755.278-1.776,1.392-3.959,4.82h-2.411l-.01,0h-14.7V76.3H237.99v.077c0,1.747.9,2.835,2.352,2.835,2.286,0,3.258-.963,3.258-3.216,0-.563-.007-1.515-.017-2.716l-.01-1.311c-.038-4.032-.086-9.784-.048-13.389,1.421-.623,2.838-1.289,2.838-2.588,0-1.8-4.386-5.518-6.021-5.518-.276,0-1.11,0-3.2,3.07H209.88a16.931,16.931,0,0,0-5.721-2.533,1.176,1.176,0,0,0-.939.347,1.1,1.1,0,0,0-.293.891c.527,5.287.4,14.607.323,20.774l0,.168c-.026,1.874-.046,3.483-.046,4.641,0,2.068,1.347,2.377,2.15,2.377,1.544,0,3.385-.465,3.385-2.682V76.3h11.757v5.6H193.869a1.6,1.6,0,0,0-1.8,1.766c0,1.2.573,1.757,1.8,1.757h21.653c-4.969,6.987-12.365,12.284-23.25,16.663a1.733,1.733,0,0,0-1.227,1.942c.209.71,1.086,1.258,2.351.928a54.03,54.03,0,0,0,27.022-15.819c-.036,3.135-.081,5.74-.117,7.852l-.022,1.373c-.041,1.954-.062,3.36-.062,4.307,0,1.678.746,2.527,2.219,2.527,2.294,0,3.663-1.117,3.663-2.987,0-.88-.021-2.294-.055-4.257l-.022-1.635c-.038-2.449-.084-5.553-.117-9.322a37.514,37.514,0,0,0,21.57,16.742c1.9.487,2.533.057,3.562-1.567a4.98,4.98,0,0,1,2.637-2.05,1.708,1.708,0,0,0,1.244-1.536c-.057-.614-.692-1.052-1.718-1.2-11.112-2.021-19-5.939-24.084-11.961h20.7c.149,0,.28-.009.42-.014h1.472c2.9,0,4.563-.8,4.563-2.2,0-1.469-1.836-3.387-2.932-4.4M225.823,62.969V58.608c1.117-.364,1.73-.906,1.73-1.539l10.582,0v5.9Zm12.233,3.523-.063,6.287H225.823V66.492Zm-17.56,0v6.287H208.736l-.064-6.287Zm-11.016-9.415,11.016-.01v5.9H208.679c.015-.516.026-1.054.038-1.589l.027-1.572c.015-1.035.031-1.944.065-2.569Z" transform="translate(136.735 36.135)" fill="#002c83"/>
      <path id="パス_45" data-name="パス 45" d="M289.51,68.484c-1.426,0-3.325,2.009-5.649,5.983H269.988a32.8,32.8,0,0,0-1.779-5.529A96.36,96.36,0,0,0,284.328,53.12l.578-.173c1.7-.5,3.176-.932,3.322-2.385.1-1.222-.985-2.835-1.647-3.686-1.278-1.656-3.27-3.466-4.23-3.523-1.138,0-3.188,2.265-3.749,2.912H243.333a1.6,1.6,0,0,0-1.8,1.762,1.567,1.567,0,0,0,1.8,1.766h34.829a88.454,88.454,0,0,1-11.812,15.27,35.668,35.668,0,0,0-6.236-7.629,2.61,2.61,0,0,0-1.9-.7,1.865,1.865,0,0,0-1.3.645,2.175,2.175,0,0,0,.144,2.8,38.823,38.823,0,0,1,7.229,14.293H234.752a1.6,1.6,0,0,0-1.8,1.76,1.566,1.566,0,0,0,1.8,1.764h30.256a58.709,58.709,0,0,1,.661,9.5c0,11.412-3.626,12.644-5.185,12.644a56.616,56.616,0,0,1-6.105-.438l-.041,0a.219.219,0,0,0-.046-.009c-.58-.065-1.093-.124-1.5-.158-1.421-.173-2.087.6-2.2,1.227a2.027,2.027,0,0,0,1.515,2.1l.679.292a7.707,7.707,0,0,1,3.461,2.25c1.318,1.69,1.812,2.322,4.025,2.322,6.977,0,11.143-7.275,11.143-19.465a67.449,67.449,0,0,0-.728-10.268h21.335c.412,0,.789-.015,1.146-.043,2.389-.141,3.747-.911,3.747-2.174,0-2.219-5.515-7.291-7.407-7.291" transform="translate(166.768 31.036)" fill="#002c83"/>
      <path id="パス_46" data-name="パス 46" d="M173.433,58.36a2.4,2.4,0,0,0,1.553-.674,50.389,50.389,0,0,0,7.835-9.34c1.534.026,2.454-.19,2.926-.686a1.389,1.389,0,0,0,.364-1c0-1.561-4.341-4.108-6.961-4.816a1.473,1.473,0,0,0-.426-.07c-.887,0-1.169.937-1.268,1.268A54.83,54.83,0,0,1,172.343,55.8a1.856,1.856,0,0,0,.137,2.2,1.346,1.346,0,0,0,.952.369" transform="translate(123.175 29.905)" fill="#002c83"/>
      <path id="パス_47" data-name="パス 47" d="M154.883,51.167a1.035,1.035,0,0,0,.062.124l.249.4c1.3,2.061,2.232,3.548,3.818,3.548a2.724,2.724,0,0,0,.6-.069c2.147-.4,3.293-2.186,2.922-4.544-.657-3.979-5.3-6.114-9.424-6.781a1.915,1.915,0,0,0-2.179.829,2.274,2.274,0,0,0,.534,2.311,42.027,42.027,0,0,1,3.416,4.185" transform="translate(107.951 31.352)" fill="#002c83"/>
      <path id="パス_48" data-name="パス 48" d="M172.794,51.525c.166-4.5-5.225-7.646-7.57-8.8a1.874,1.874,0,0,0-2.349.353,2.213,2.213,0,0,0,.05,2.4,47.766,47.766,0,0,1,2.474,5.043l.369.882c.887,2.165,1.587,3.874,3.445,3.95.026,0,.069,0,.113,0v.005c2.011,0,3.4-1.541,3.468-3.828" transform="translate(116.365 30.412)" fill="#002c83"/>
      <path id="パス_49" data-name="パス 49" d="M151.759,60.639l.48.709c1.084,1.623,2.111,3.154,3.67,3.154a2.51,2.51,0,0,0,.561-.062,3.3,3.3,0,0,0,2.337-1.465,4.24,4.24,0,0,0,.544-3c-.587-4.015-5.149-6.1-9.209-6.716a1.972,1.972,0,0,0-2.3.836,2.075,2.075,0,0,0,.537,2.186,47.053,47.053,0,0,1,3.377,4.358" transform="translate(105.746 38.086)" fill="#002c83"/>
      <path id="パス_50" data-name="パス 50" d="M161.441,63.858a1.683,1.683,0,0,0-2.2,1.033c-.438.889-1.062,2.234-1.724,3.657l-.211.455c-1.062,2.3-2.517,5.444-3.313,6.908-.53,1.024-.743,1.021-1.23.879-.68-.276-2.119-.836-3.077-1.162a1.379,1.379,0,0,0-1.752.642,1.588,1.588,0,0,0,.36,1.92c.316.319.611.606.892.873a10.237,10.237,0,0,1,2.34,2.893c.089.24.172.474.24.7a12.159,12.159,0,0,1-.177,4.762c-.1.661-.2,1.283-.263,1.862-.084.817-.154,1.537-.154,2.049,0,1.637.76,4.406,3.609,4.406,1.709,0,4.573-.794,4.573-6.127a27.734,27.734,0,0,0-.752-6.248,13,13,0,0,0-.357-1.254,8.181,8.181,0,0,1-.379-1.493c.021-1.187,1.007-4.084,2.054-7.155l.124-.36c.841-2.469,1.712-5.024,2.241-7.111a1.732,1.732,0,0,0-.846-2.131" transform="translate(105.774 45.624)" fill="#002c83"/>
      <path id="パス_51" data-name="パス 51" d="M200.262,79.584a2.2,2.2,0,0,0-2.4.827c-.722.549-1.831,1.894-3.8,5.143H182.756V72.832h15.352c.067,0,.124-.007.189-.007h1.029c2.9,0,4.563-.8,4.563-2.2,0-2.27-4.943-6.821-6.834-6.821a2.956,2.956,0,0,0-2.047.69,6.555,6.555,0,0,0-1.827,1.858,22.9,22.9,0,0,0-1.383,1.978c-.2.305-.412.626-.637.981h-8.4V58.842c1.58-.3,2.2-.933,2.43-1.489h3.771c.026,0,.05.014.077.014h10.757c.13,0,.247-.01.374-.014h.712c3.435,0,3.806-1.34,3.806-1.917,0-1.054-1.35-2.872-2.843-4.345-1.532-1.549-3.373-2.841-4.338-2.841-.012,0-.137-.007-.149-.007-1.6,0-3.509,1.881-5.683,5.589H161.112a1.6,1.6,0,0,0-1.805,1.761c0,1.184.59,1.76,1.805,1.76H177.5V69.309H162.7a1.6,1.6,0,0,0-1.8,1.764c0,1.2.571,1.759,1.8,1.759h14.8V85.553H158.828a1.6,1.6,0,0,0-1.8,1.766c0,1.2.57,1.759,1.8,1.759h18.6c-.038,4.463-.1,7.987-.144,10.6l-.009.448c-.033,1.936-.053,3.355-.053,4.278,0,1.676.722,2.526,2.148,2.526,2.294,0,3.665-1.115,3.665-2.986,0-.817-.021-2.126-.055-3.941l-.027-1.76c-.038-2.4-.088-5.451-.118-9.166H201.5c.172,0,.329-.005.487-.012h.856c2.9,0,4.564-.8,4.564-2.2,0-2.44-5.714-6.869-7.145-7.279" transform="translate(112.415 34.537)" fill="#002c83"/>
      <path id="パス_52" data-name="パス 52" d="M51.473,18.885a1.786,1.786,0,0,0,.8-.2c1.882-.942,5.28-2.944,6.893-5.765a16.522,16.522,0,0,0,1.894-5.6h2.835c.031,2.075-.309,4.679-.762,5.422A1.069,1.069,0,0,1,62.1,13.5a12.535,12.535,0,0,1-1.561-.086c-.173-.017-.359-.036-.511-.046a1.147,1.147,0,0,0-1.374.786c-.24.88.444,1.28.868,1.524a1.36,1.36,0,0,1,.755.585,1.753,1.753,0,0,0,1.93,1.119,4.281,4.281,0,0,0,4.079-2.644c.8-1.476,1.09-4.863,1.143-6.87.875-.535,1.3-1.072,1.3-1.639,0-1.062-2.462-2.751-3.433-2.751-.187,0-.666,0-1.652,1.222H61.37c.033-.515.053-1.047.06-1.573.623-.194,1.4-.57,1.4-1.433a.877.877,0,0,0-.232-.678c-.82-.908-4.17-.949-4.2-.949a1.1,1.1,0,0,0-.834.309,1.081,1.081,0,0,0-.223.849A22.73,22.73,0,0,1,57.444,4.7H52.109a1.252,1.252,0,0,0-1.383,1.313,1.23,1.23,0,0,0,1.383,1.313h5.07a14.085,14.085,0,0,1-1.285,4.226,15.449,15.449,0,0,1-5,5.014,1.318,1.318,0,0,0-.482,1.762,1.231,1.231,0,0,0,1.062.561" transform="translate(35.969 0.045)" fill="#002c83"/>
      <path id="パス_53" data-name="パス 53" d="M83.726,26.949c-5.616-.729-9.717-2.356-12.481-4.959H81.532c2.212,0,2.677-.793,2.677-1.457,0-1.316-3.089-3.754-4.079-3.754-.673,0-1.4.683-2.751,2.588H69.337V18.11c1.549-.381,1.8-1.17,1.8-1.635a.974.974,0,0,0-.007-.124c1.913-.012,2.2-1.067,2.2-1.707v-.592h4.631a1.665,1.665,0,0,0,1.707,1.759c.6,0,2.174,0,2.174-1.958,0-.317-.005-.872-.015-1.561-.022-1.836-.058-4.825,0-6.666.492-.237,1.163-.673,1.163-1.4,0-1.163-2.438-2.929-3.433-2.929-.613,0-1.333.77-1.882,1.507h-3.73a9.05,9.05,0,0,0-3.293-1.4,1.042,1.042,0,0,0-.88.3.993.993,0,0,0-.285.827c.273,2.486.206,7.016.163,10.014-.014.9-.024,1.682-.024,2.241a1.976,1.976,0,0,0,.027.34,13.621,13.621,0,0,0-3.205-.287,1.063,1.063,0,0,0-.867.36.969.969,0,0,0-.189.825,31.431,31.431,0,0,1,.23,3.341H51.931a1.253,1.253,0,0,0-1.385,1.313,1.231,1.231,0,0,0,1.385,1.311H63.3c-2.579,2.962-6.64,5.6-12.109,7.845A1.281,1.281,0,0,0,50.3,31.4a1.384,1.384,0,0,0,1.79.7,32.952,32.952,0,0,0,13.566-7.124c-.024.9-.069,2.128-.108,3.252-.048,1.357-.093,2.591-.093,3.013A1.518,1.518,0,0,0,67.091,32.8c1.537,0,2.318-.551,2.318-1.637,0-.408-.015-1.68-.031-3.068-.019-1.531-.038-3.2-.041-4a19.883,19.883,0,0,0,11.069,7,1.871,1.871,0,0,0,2.368-.954,2.381,2.381,0,0,1,1.294-.892,1.292,1.292,0,0,0,.993-1.268c-.029-.261-.216-.884-1.335-1.03m-10.4-15.522V9.256c0-1.735.014-3.017.043-3.826h4.659c0,.707-.009,1.589-.015,2.517-.007,1.17-.017,2.416-.019,3.48Z" transform="translate(35.967 0.929)" fill="#002c83"/>
      <path id="パス_54" data-name="パス 54" d="M77.849,13.042c2.225,0,4.1-2.33,4.259-5.336l20.29-.015c-.4.707-.9,1.5-1.541,2.476a1.233,1.233,0,0,0,.051,1.609,1.378,1.378,0,0,0,1.774.084,34.368,34.368,0,0,0,3.808-3.082l.338-.089c.889-.23,1.9-.491,1.9-1.5a3.246,3.246,0,0,0-1.155-2.138c-.525-.541-1.706-1.565-2.421-1.565-.535,0-1.278.532-2.21,1.58H94.033V3.435c.86-.225,1.9-.64,1.9-1.762C95.936.218,92.976,0,91.212,0a1.107,1.107,0,0,0-.841.345,1.056,1.056,0,0,0-.254.842c.088.937.13,2.466.115,3.878H81.8A10.609,10.609,0,0,0,81.26,3.5a1.352,1.352,0,0,0-1.525-.837,1.249,1.249,0,0,0-.9,1.332c.007.2.019.419.033.637A5.472,5.472,0,0,1,78.7,6.942a4.461,4.461,0,0,1-1.537,1.865,2.731,2.731,0,0,0-1.347,2.2,1.987,1.987,0,0,0,2.032,2.032" transform="translate(54.276 0)" fill="#002c83"/>
      <path id="パス_55" data-name="パス 55" d="M86.35,10.745c0,3.3,1.325,3.756,6.587,3.79.1,0,.2,0,.3,0,3.608,0,5.9-.463,6.826-1.378a1.513,1.513,0,0,0,.482-1.086,1.893,1.893,0,0,0-.245-.963,3.948,3.948,0,0,1-.257-2.28,1.214,1.214,0,0,0-.961-1.33,1.172,1.172,0,0,0-1.311.867A7.479,7.479,0,0,1,96.93,10.3c-.357.451-1.175.75-4.019.709a9.963,9.963,0,0,1-2.821-.251,1.81,1.81,0,0,1-.039-.484c0-.951,0-1.62.046-2.62.666-.141,1.57-.472,1.57-1.366,0-1.688-4.074-1.707-4.115-1.707a1.221,1.221,0,0,0-.942.326,1.2,1.2,0,0,0-.259.949c.1,1.718.039,3.586,0,4.7Z" transform="translate(61.813 3.282)" fill="#002c83"/>
      <path id="パス_56" data-name="パス 56" d="M105.043,19.32c-.793,0-1.622.93-2.931,2.764h-7.9V16.406a1.641,1.641,0,0,0,.873-.784h7.728c2.181,0,2.641-.772,2.641-1.421,0-1.316-3.032-3.756-4-3.756-.676,0-1.424.7-2.72,2.552H81.442a1.252,1.252,0,0,0-1.385,1.313,1.231,1.231,0,0,0,1.385,1.313h8.852v6.462H77.1A1.253,1.253,0,0,0,75.713,23.4,1.23,1.23,0,0,0,77.1,24.711h29.385c2.3,0,2.781-.813,2.781-1.495,0-1.366-3.195-3.9-4.219-3.9" transform="translate(54.202 7.478)" fill="#002c83"/>
      <path id="パス_57" data-name="パス 57" d="M85.9,5.973a7.113,7.113,0,0,1-1.987,4.708c-1.289,1.563-3.346,2.769-6.689,3.919a1.306,1.306,0,0,0-.887,1.577,1.246,1.246,0,0,0,1.22.86,1.7,1.7,0,0,0,.35-.039c4.127-.772,7.1-2.219,9.092-4.42a12.424,12.424,0,0,0,2.239-3.814c.091-.209.182-.42.275-.63.76-.094,1.917-.367,1.917-1.525,0-1.385-2.773-1.96-4.257-1.96-1.184,0-1.246.908-1.273,1.325" transform="translate(54.614 3.328)" fill="#002c83"/>
      <path id="パス_58" data-name="パス 58" d="M116.106,4.607A12.7,12.7,0,0,0,107.9,7.594a11.042,11.042,0,0,0-3.54,9.345c.293,3.833,2.057,6.616,4.194,6.616,4.089,0,9.569-6.368,11.555-11.846a16.771,16.771,0,0,0,.841-3.3A7.336,7.336,0,0,1,124.9,15.2c0,4.444-2.675,6.953-8.672,8.132a1.229,1.229,0,0,0-1.141,1.246c.05.511.511,1.026,1.434,1.026,7.444,0,12.068-3.778,12.068-9.861,0-6.556-5.132-11.136-12.483-11.136m1.99,2.855a9.473,9.473,0,0,1-.492,1.956c-1.555,4.437-6.038,10.161-8.667,10.161-.494,0-1.256-1.2-1.4-3.451a7.977,7.977,0,0,1,2.356-6.608A8.722,8.722,0,0,1,116.01,7.3a13.8,13.8,0,0,1,2.087.158" transform="translate(74.68 3.298)" fill="#002c83"/>
      <path id="パス_59" data-name="パス 59" d="M145.6,1.579a5.276,5.276,0,1,0,5.257,5.254A5.28,5.28,0,0,0,145.6,1.579m2.447,5.254A2.467,2.467,0,1,1,145.6,4.386a2.443,2.443,0,0,1,2.447,2.447" transform="translate(100.441 1.131)" fill="#002c83"/>
      <path id="パス_60" data-name="パス 60" d="M136.724,7.266c-1.018,0-2.634.376-2.634,1.385,0,.693.764,1.158,1.572,1.651.141.088.281.17.408.254.559.36.556.376.491.726-.731,3.411-5.707,7.351-9.746,9.691-.937.544-1.129,1.3-.9,1.809a1.259,1.259,0,0,0,1.23.679,2.757,2.757,0,0,0,.832-.141,22.784,22.784,0,0,0,12.771-10.095,5.162,5.162,0,0,0,.752-2.478c0-1.529-2.675-3.482-4.772-3.482" transform="translate(90.076 5.202)" fill="#002c83"/>
      <path id="パス_61" data-name="パス 61" d="M138.924,6.826a1.48,1.48,0,0,0-1.879.613,1.4,1.4,0,0,0,.707,1.767c4.532,2.914,6.061,5.2,6.821,10.2a2.383,2.383,0,0,0,2.145,2.268,2.676,2.676,0,0,0,2.673-2.915c0-5.309-4.207-10.1-10.467-11.931" transform="translate(98.033 4.817)" fill="#002c83"/>
      <path id="パス_62" data-name="パス 62" d="M180.41,7.049a29.91,29.91,0,0,0-4.1.609c-.848.156-1.822.335-2.929.527-3.921.679-13.231,2.171-15.355,2.171a4.809,4.809,0,0,1-2.373-.837c-.244-.137-.487-.273-.734-.4a1.288,1.288,0,0,0-1.35.039,1.236,1.236,0,0,0-.472,1.2c.285,2.088,2.284,4.214,3.96,4.214a37.717,37.717,0,0,0,5.7-1.012c1.414-.309,2.936-.64,4.41-.92.65.659.664.913.611,1.459-.355,3.358-4.36,8.7-8.933,11.922a1.546,1.546,0,0,0-.667,2.059,1.44,1.44,0,0,0,1.259.661,2.083,2.083,0,0,0,.918-.225A22.876,22.876,0,0,0,171.71,16.183l.17-.4a5.514,5.514,0,0,0,.6-1.989,2.474,2.474,0,0,0-.957-1.822c2.725-.324,5.994-.623,7.881-.623.7,0,1.357.012,1.949.022.5.009.952.017,1.357.017,1.92,0,2.069-1.213,2.069-1.587,0-1.8-2.536-2.754-4.367-2.754" transform="translate(109.59 5.046)" fill="#002c83"/>
      <path id="パス_63" data-name="パス 63" d="M157.058,5.494a5.624,5.624,0,0,0,4.955,3,42.282,42.282,0,0,0,9.545-1.555c1.529-.441,2.406-1.232,2.406-2.169,0-1.412-2-2.069-3.36-2.069a6.821,6.821,0,0,0-2.129.587,17.725,17.725,0,0,1-6.623,1.39,8.176,8.176,0,0,1-3.355-.891,1.19,1.19,0,0,0-1.361.218,1.3,1.3,0,0,0-.081,1.489Z" transform="translate(112.297 1.934)" fill="#002c83"/>
      <path id="パス_64" data-name="パス 64" d="M193.057,4.071c-.947,0-1.285.439-1.4.7s-.221.827.438,1.563c.892,1,.824,1.132.458,1.838-2.008,3.523-7.938,8.94-14.094,12.876a1.552,1.552,0,0,0-.729,2.062,1.611,1.611,0,0,0,2.212.534A45.486,45.486,0,0,0,190.088,16.7a31.126,31.126,0,0,1-.264,6.129c-.057.336-.127.623-.19.885a5.8,5.8,0,0,0-.218,1.424c0,1.711.957,3,2.231,3a2.231,2.231,0,0,0,2.188-2.145,71.975,71.975,0,0,0,.038-9.908A3.29,3.29,0,0,0,193,13.915c1.2-1.259,2.337-2.579,3.461-4.017l.079-.106a4.136,4.136,0,0,0,1.043-2.28c0-1.661-2.66-3.44-4.53-3.44" transform="translate(127.117 2.915)" fill="#002c83"/>
      <path id="パス_65" data-name="パス 65" d="M221.692,9.685a2.3,2.3,0,0,0,1.088-1.721c0-1.867-2.932-3.765-4.571-3.765a3.183,3.183,0,0,0-1.489.4,7.739,7.739,0,0,1-.976.4,43.707,43.707,0,0,1-8.905,1.829,4.262,4.262,0,0,1-2.268-1l-.391-.251a1.4,1.4,0,0,0-1.567-.115,1.4,1.4,0,0,0-.458,1.561c.46,2.334,2.677,4.144,4.279,4.144,1.342,0,4.726-1.2,7.447-2.159,1.3-.46,2.426-.856,2.879-.961.1-.022.29-.067.456-.1a7.483,7.483,0,0,1-.333.743c-2.4,4.765-8.811,11.694-17.212,15.647a1.571,1.571,0,0,0-.889,2.057,1.46,1.46,0,0,0,1.359.879,1.886,1.886,0,0,0,.674-.132,40.252,40.252,0,0,0,19.822-16.346,5.077,5.077,0,0,1,1.055-1.11" transform="translate(142.218 3.006)" fill="#002c83"/>
      <path id="パス_66" data-name="パス 66" d="M211.3,11.954a1.589,1.589,0,0,0-1.786.741,1.325,1.325,0,0,0,.5,1.613,25.49,25.49,0,0,1,3.76,3.679c.309.372.57.752.812,1.1.693,1,1.349,1.953,2.625,1.953a2.12,2.12,0,0,0,2.231-2.128v0c.137-3.66-4.122-6.174-8.137-6.958" transform="translate(149.912 8.532)" fill="#002c83"/>
      <path id="パス_67" data-name="パス 67" d="M236.629,1.775c-.877,0-2.8.4-2.8,1.585,0,.75.71,1.1,1.4,1.429.208.1.429.206.65.333.975.546,1.105.793,1.182,1.27.6,3.679.106,10.683-1.459,14.554-1.429,3.535-3.533,6.23-7.262,9.3-.8.65-.856,1.407-.558,1.867a1.238,1.238,0,0,0,1.078.523,2.4,2.4,0,0,0,1.064-.28A19.69,19.69,0,0,0,239.3,22.2c1.836-4.355,2.22-9.643,2.22-13.315,0-.667.009-1.27.015-1.807a17.087,17.087,0,0,0-.062-2.557c-.254-1.573-2.769-2.751-4.846-2.751" transform="translate(162.95 1.271)" fill="#002c83"/>
      <path id="パス_68" data-name="パス 68" d="M232,20.3a107.169,107.169,0,0,0,.041-13.645c-.208-1.651-2.574-3.332-4.688-3.332-1.06,0-2.555.455-2.555,1.464,0,.65.577.978,1.306,1.4l.419.242a2.194,2.194,0,0,1,1.393,1.824,24.949,24.949,0,0,1,.472,5.213,15.651,15.651,0,0,1-.359,3.356,9.656,9.656,0,0,0-.244,1.925c0,1.887,1.021,3.482,2.229,3.482A1.974,1.974,0,0,0,232,20.3" transform="translate(160.931 2.381)" fill="#002c83"/>
      <path id="パス_69" data-name="パス 69" d="M269.119,8.875A14.112,14.112,0,0,0,266.4,9.2c-.812.149-1.824.335-3.322.528-2.764.36-11.759,1.287-13.846,1.287a5.021,5.021,0,0,1-2.7-1.1c-.163-.106-.323-.213-.479-.309a1.29,1.29,0,0,0-1.359-.137,1.257,1.257,0,0,0-.59,1.157c0,2.064,2.138,4.935,4.245,4.935a14.606,14.606,0,0,0,2.829-.377c.532-.1,1.1-.218,1.738-.316,1.9-.326,10.326-1.325,13.461-1.325,1.757,0,2.757.07,3.559.125.592.041,1.095.075,1.724.075,2.032,0,2.189-1.273,2.189-1.664,0-2.088-2.747-3.2-4.731-3.2" transform="translate(174.749 6.354)" fill="#002c83"/>
    </g>
  </g>
</svg>
